<svg width="68" height="54" viewBox="0 0 68 54" fill="none" xmlns="http://www.w3.org/2000/svg">
<g clip-path="url(#clip0_248_11278)">
<path fill-rule="evenodd" clip-rule="evenodd" d="M5.18993 44.19C6.30993 44.06 13.5299 43 13.5299 41.3C13.5299 41.09 13.4199 40.88 13.1999 40.67C16.6099 42.95 18.1899 44.34 20.4399 47.76C20.7499 48.23 20.8699 48.73 20.7299 49.2C20.6099 49.57 20.3299 49.92 19.8299 50.22C17.0799 51.85 13.6899 52.88 10.5799 53.6C10.1599 51.75 10.0099 49.91 10.1899 48.11C7.95993 47.24 6.40993 45.99 5.17993 44.2L5.18993 44.19Z" fill="url(#paint0_radial_248_11278)"/>
<path style="mix-blend-mode:multiply" fill-rule="evenodd" clip-rule="evenodd" d="M13.5299 41.29C13.5299 42.38 10.5899 43.2 8.16992 43.69C9.26992 45.04 10.6799 46.39 12.3399 47.61C14.4199 49.15 16.5799 50.27 18.5399 50.9C18.9799 50.68 19.4199 50.45 19.8299 50.2C20.3299 49.91 20.6099 49.56 20.7299 49.18C20.8699 48.71 20.7499 48.21 20.4399 47.74C18.1799 44.32 16.5999 42.93 13.1999 40.65C13.4199 40.85 13.5299 41.06 13.5299 41.28V41.29Z" fill="url(#paint1_radial_248_11278)"/>
<path fill-rule="evenodd" clip-rule="evenodd" d="M19.4198 47.7601C18.9798 49.4601 12.7498 51.1401 10.2598 51.7301C10.2998 52.0401 10.3498 52.3501 10.3998 52.6601C12.6398 52.1301 19.5598 50.2801 20.0798 48.4701C20.2098 48.0301 20.0898 47.5501 19.7898 47.1101L19.1298 46.4701C19.4198 46.8901 19.5398 47.3401 19.4198 47.7601ZM6.56983 45.8401C8.52983 45.5201 14.7398 44.3501 14.8398 42.7401C14.8698 42.4801 14.7498 42.2201 14.5198 41.9701L13.8598 41.3301C14.0898 41.5601 14.1998 41.7901 14.1898 42.0301C14.1398 43.7001 7.35983 44.8301 5.82983 45.0401C6.06983 45.3301 6.31983 45.6001 6.57983 45.8501L6.56983 45.8401Z" fill="url(#paint2_radial_248_11278)"/>
<path fill-rule="evenodd" clip-rule="evenodd" d="M16.62 47.96C17.57 48.6 21.02 47.46 20.73 49.19C20.87 48.72 20.75 48.22 20.44 47.75C18.18 44.33 15.26 41.38 11.85 39.11C12.07 39.31 12.18 39.52 12.18 39.74C12.18 40.45 11 41.01 9.55005 41.43C11.55 43.96 13.93 46.17 16.62 47.96Z" fill="#5B1500"/>
<path fill-rule="evenodd" clip-rule="evenodd" d="M61.9801 44.19C60.8601 44.06 53.6401 43 53.6401 41.3C53.6401 41.09 53.7501 40.88 53.9701 40.67C50.5601 42.95 48.9801 44.34 46.7301 47.76C46.4201 48.23 46.3001 48.73 46.4401 49.2C46.5601 49.57 46.8401 49.92 47.3401 50.22C50.0901 51.85 53.4801 52.88 56.5901 53.6C57.0101 51.75 57.1601 49.91 56.9801 48.11C59.2101 47.24 60.7601 45.99 61.9901 44.2L61.9801 44.19Z" fill="url(#paint3_radial_248_11278)"/>
<path style="mix-blend-mode:multiply" fill-rule="evenodd" clip-rule="evenodd" d="M53.6401 41.29C53.6401 42.38 56.5801 43.2 59.0001 43.69C57.9001 45.04 56.4901 46.39 54.8301 47.61C52.7501 49.15 50.5901 50.27 48.6301 50.9C48.1901 50.68 47.7501 50.45 47.3401 50.2C46.8401 49.91 46.5601 49.56 46.4401 49.18C46.3001 48.71 46.4201 48.21 46.7301 47.74C48.9901 44.32 50.5701 42.93 53.9701 40.65C53.7501 40.85 53.6401 41.06 53.6401 41.28V41.29Z" fill="url(#paint4_radial_248_11278)"/>
<path fill-rule="evenodd" clip-rule="evenodd" d="M47.7501 47.7601C48.1901 49.4601 54.4201 51.1401 56.9101 51.7301C56.8701 52.0401 56.8201 52.3501 56.7701 52.6601C54.5301 52.1301 47.6101 50.2801 47.0901 48.4701C46.9601 48.0301 47.0801 47.5501 47.3801 47.1101L48.0401 46.4701C47.7501 46.8901 47.6301 47.3401 47.7501 47.7601ZM60.6001 45.8401C58.6401 45.5201 52.4301 44.3501 52.3301 42.7401C52.3001 42.4801 52.4201 42.2201 52.6501 41.9701L53.3101 41.3301C53.0801 41.5601 52.9701 41.7901 52.9801 42.0301C53.0301 43.7001 59.8101 44.8301 61.3401 45.0401C61.1001 45.3301 60.8501 45.6001 60.5901 45.8501L60.6001 45.8401Z" fill="url(#paint5_radial_248_11278)"/>
<path fill-rule="evenodd" clip-rule="evenodd" d="M50.5501 47.96C49.6001 48.6 46.1501 47.46 46.4401 49.19C46.3001 48.72 46.4201 48.22 46.7301 47.75C48.9901 44.33 51.9101 41.38 55.3201 39.11C55.1001 39.31 54.9901 39.52 54.9901 39.74C54.9901 40.45 56.1701 41.01 57.6201 41.43C55.6201 43.96 53.2401 46.17 50.5501 47.96Z" fill="#5B1500"/>
<path fill-rule="evenodd" clip-rule="evenodd" d="M33.5899 4.92999C45.4399 4.92999 55.0399 14.53 55.0399 26.38C55.0399 38.23 45.4399 47.83 33.5899 47.83C21.7399 47.83 12.1399 38.23 12.1399 26.38C12.1399 14.53 21.7399 4.92999 33.5899 4.92999Z" fill="url(#paint6_linear_248_11278)"/>
<path style="mix-blend-mode:multiply" fill-rule="evenodd" clip-rule="evenodd" d="M33.59 39.95C43.74 39.95 51.96 31.72 51.96 21.58C51.96 18.99 51.42 16.53 50.46 14.29C52.95 17.72 54.42 21.95 54.42 26.51C54.42 38.02 45.09 47.34 33.59 47.34C22.09 47.34 12.75 38.02 12.75 26.51C12.75 21.94 14.22 17.72 16.71 14.29C15.74 16.52 15.21 18.99 15.21 21.58C15.21 31.73 23.44 39.95 33.58 39.95H33.59Z" fill="url(#paint7_radial_248_11278)"/>
<path fill-rule="evenodd" clip-rule="evenodd" d="M33.5899 5.82997C44.9399 5.82997 54.1399 15.03 54.1399 26.38C54.1399 37.73 44.9399 46.93 33.5899 46.93C22.2399 46.93 13.0299 37.73 13.0299 26.38C13.0299 15.03 22.2299 5.82997 33.5899 5.82997ZM57.0599 26.38C57.0599 13.42 46.5499 2.90997 33.5899 2.90997C20.6299 2.90997 10.1199 13.42 10.1199 26.38C10.1199 39.34 20.6299 49.85 33.5899 49.85C46.5499 49.85 57.0599 39.34 57.0599 26.38Z" fill="url(#paint8_linear_248_11278)"/>
<path fill-rule="evenodd" clip-rule="evenodd" d="M33.59 49.85C46.5499 49.85 57.06 39.34 57.06 26.38C57.06 13.42 46.5499 2.91 33.59 2.91C20.63 2.91 10.12 13.42 10.12 26.38C10.12 39.34 20.63 49.85 33.59 49.85ZM59.97 26.38C59.97 40.95 48.16 52.76 33.59 52.76C19.02 52.76 7.19995 40.95 7.19995 26.38C7.19995 11.81 19.01 0 33.59 0C48.17 0 59.97 11.81 59.97 26.38Z" fill="url(#paint9_linear_248_11278)"/>
<path style="mix-blend-mode:screen" fill-rule="evenodd" clip-rule="evenodd" d="M33.5899 46.94C22.2399 46.94 13.0399 37.74 13.0399 26.39C12.6099 26.46 12.1099 26.49 11.5799 26.49C11.0499 26.49 10.5499 26.45 10.1199 26.39C10.1199 39.35 20.6299 49.86 33.5899 49.86C46.5499 49.86 57.0599 39.35 57.0599 26.39C56.6299 26.46 56.1299 26.49 55.5999 26.49C55.0699 26.49 54.5699 26.45 54.1399 26.39C54.1399 37.74 44.9399 46.94 33.5899 46.94Z" fill="url(#paint10_linear_248_11278)"/>
<path style="mix-blend-mode:screen" fill-rule="evenodd" clip-rule="evenodd" d="M10.12 26.38C10.12 13.42 20.62 2.91 33.59 2.91C46.56 2.91 57.06 13.42 57.06 26.38C57.49 26.31 57.99 26.27 58.52 26.27C59.0499 26.27 59.5499 26.31 59.9799 26.38C59.97 11.81 48.16 0 33.59 0C19.02 0 7.19995 11.81 7.19995 26.38C7.62995 26.31 8.12995 26.27 8.65995 26.27C9.18995 26.27 9.68995 26.31 10.12 26.38Z" fill="url(#paint11_linear_248_11278)"/>
<path style="mix-blend-mode:screen" fill-rule="evenodd" clip-rule="evenodd" d="M33.59 46.94C22.24 46.94 13.04 37.74 13.04 26.39C13.04 38.24 22.24 47.84 33.59 47.84C44.94 47.84 54.14 38.24 54.14 26.39C54.14 37.74 44.94 46.94 33.59 46.94Z" fill="url(#paint12_radial_248_11278)"/>
<path style="mix-blend-mode:multiply" fill-rule="evenodd" clip-rule="evenodd" d="M33.59 6.92002C42.97 6.92002 50.89 12.81 53.4 20.89C51 12.21 43.04 5.83002 33.59 5.83002C24.14 5.83002 16.18 12.21 13.78 20.89C16.3 12.82 24.21 6.92002 33.59 6.92002Z" fill="url(#paint13_radial_248_11278)"/>
<path style="mix-blend-mode:screen" fill-rule="evenodd" clip-rule="evenodd" d="M33.5899 31.64C42.1299 31.64 49.0599 26.33 49.0599 19.77C49.0599 13.21 42.1299 7.90002 33.5899 7.90002C25.0499 7.90002 18.1199 13.21 18.1199 19.77C18.1199 26.33 25.0499 31.64 33.5899 31.64Z" fill="url(#paint14_radial_248_11278)"/>
<path style="mix-blend-mode:screen" fill-rule="evenodd" clip-rule="evenodd" d="M33.59 17.43C39 17.43 43.3801 15.4 43.3801 12.89C43.3801 10.38 39 8.34998 33.59 8.34998C28.18 8.34998 23.8 10.38 23.8 12.89C23.8 15.4 28.18 17.43 33.59 17.43Z" fill="url(#paint15_radial_248_11278)"/>
<path fill-rule="evenodd" clip-rule="evenodd" d="M16.8601 42.02C13.0701 39.74 10.0901 36.45 8.18009 32.58C5.28009 26.68 4.71009 18.61 8.51009 13.14C5.94009 18.74 5.82009 25.41 9.31009 32.01C11.2101 35.59 14.0701 38.62 17.6801 40.68C18.0601 40.9 18.1901 41.38 17.9701 41.76C17.7501 42.14 17.2701 42.27 16.8901 42.05C16.8801 42.05 16.8601 42.03 16.8501 42.03L16.8601 42.02Z" fill="url(#paint16_linear_248_11278)"/>
<path style="mix-blend-mode:screen" fill-rule="evenodd" clip-rule="evenodd" d="M14.1699 39.86C12.1799 38.23 10.9499 36.84 9.56994 34.67C7.60994 31.58 6.48994 28.2 6.09994 24.57C5.73994 21.23 6.19994 18.98 7.13994 15.97C6.35994 19.13 6.03994 21.4 6.43994 24.49C6.89994 28.07 8.01994 31.4 10.0299 34.33C11.5099 36.49 12.8499 37.5 14.6399 39.27C15.0199 39.65 15.0099 39.83 14.9099 39.95C14.7999 40.1 14.5299 40.15 14.1699 39.85V39.86Z" fill="url(#paint17_radial_248_11278)"/>
<path fill-rule="evenodd" clip-rule="evenodd" d="M3.71999 28.74C3.16999 28.67 2.59999 28.44 2.18999 28.05C1.38999 27.3 0.82999 26.56 0.51999 25.74C0.79999 25.92 1.06999 26.03 1.44999 26.13C1.09999 25.96 0.66999 25.63 0.39999 25.36C0.39999 25.33 0.38999 25.31 0.37999 25.28C0.10999 24.14 0.19999 22.14 -0.0100098 21.26C0.76999 21.71 1.71999 22.01 2.63999 22.39C2.77999 22.45 2.90999 22.5 3.04999 22.56C3.07999 22.73 3.08999 22.92 3.11999 23.08C3.14999 23.25 3.24999 23.2 3.31999 23.08C3.37999 22.98 3.40999 22.85 3.42999 22.74C4.96999 23.45 6.47999 24.49 6.51999 26.01C6.53999 26.83 6.02999 27.45 6.26999 28.33C5.62999 28.31 4.50999 28.86 3.70999 28.75L3.71999 28.74Z" fill="url(#paint18_linear_248_11278)"/>
<path fill-rule="evenodd" clip-rule="evenodd" d="M3.64 26.32C2.06 24.79 1.13 23.12 0 21.26C0.21 22.14 0.11 24.14 0.39 25.28C0.39 25.31 0.4 25.33 0.41 25.36C0.68 25.63 1.11 25.96 1.46 26.13C1.08 26.04 0.82 25.93 0.53 25.74C0.83 26.56 1.39 27.3 2.2 28.05C2.62 28.44 3.18 28.66 3.73 28.74C4.52 28.85 5.65 28.3 6.29 28.32C5.3 27.66 4.52 27.16 3.65 26.32H3.64Z" fill="url(#paint19_linear_248_11278)"/>
<path style="mix-blend-mode:screen" fill-rule="evenodd" clip-rule="evenodd" d="M0.32999 23.19C0.33999 22.64 0.42999 22.11 0.67999 21.99C1.01999 21.83 1.85999 22.09 2.45999 22.31C1.59999 21.97 0.71999 21.68 -0.0100098 21.26C0.19999 22.14 0.0999902 24.14 0.37999 25.28C0.37999 25.31 0.38999 25.33 0.39999 25.36C0.43999 25.4 0.48999 25.45 0.53999 25.49C0.36999 24.74 0.30999 23.96 0.32999 23.19ZM0.51999 25.74C0.58999 25.94 0.67999 26.14 0.78999 26.34C0.71999 26.16 0.66999 25.99 0.61999 25.8C0.58999 25.78 0.55999 25.76 0.51999 25.74Z" fill="url(#paint20_radial_248_11278)"/>
<path style="mix-blend-mode:screen" fill-rule="evenodd" clip-rule="evenodd" d="M2.71011 25.34C3.03011 24.32 3.14011 23.53 2.96011 22.51C2.86011 22.47 2.75011 22.42 2.65011 22.38C2.47011 22.31 2.29011 22.24 2.11011 22.17C2.60011 23.09 2.51011 24.44 2.35011 24.9C2.46011 25.05 2.58011 25.2 2.70011 25.34H2.71011Z" fill="url(#paint21_radial_248_11278)"/>
<path style="mix-blend-mode:screen" fill-rule="evenodd" clip-rule="evenodd" d="M3.87992 22.9401C3.77992 23.9201 3.30992 24.9801 2.91992 25.5801C3.28992 25.9901 3.68992 26.3601 4.11992 26.7301C4.73992 25.8801 4.74992 24.3801 4.60992 23.3501C4.37992 23.2001 4.12992 23.0701 3.87992 22.9401Z" fill="url(#paint22_radial_248_11278)"/>
<path style="mix-blend-mode:multiply" fill-rule="evenodd" clip-rule="evenodd" d="M5.16997 24.63C6.13997 27.01 3.40997 29.2 0.969971 26.64C1.27997 27.12 1.68997 27.59 2.18997 28.05C2.60997 28.44 3.16997 28.66 3.71997 28.74C4.50997 28.85 5.63997 28.3 6.27997 28.32C6.03997 27.44 6.54997 26.82 6.52997 26C6.48997 24.6 5.19997 23.61 3.79997 22.9C4.46997 23.43 4.78997 23.7 5.16997 24.64V24.63Z" fill="url(#paint23_radial_248_11278)"/>
<path style="mix-blend-mode:screen" fill-rule="evenodd" clip-rule="evenodd" d="M1.08003 26.8C2.03003 27.06 3.13003 27.01 4.04003 26.67C3.92003 26.57 3.81003 26.4701 3.69003 26.3601C2.74003 26.6501 1.62003 26.58 0.780029 26.3C0.870029 26.47 0.970029 26.64 1.08003 26.8ZM4.22003 26.83C3.39003 27.19 2.70003 27.3201 1.84003 27.2901C1.91003 27.3601 1.99003 27.44 2.09003 27.47C2.99003 27.71 3.79003 27.5101 4.57003 27.1201C4.45003 27.0201 4.33003 26.92 4.22003 26.83Z" fill="url(#paint24_radial_248_11278)"/>
<path fill-rule="evenodd" clip-rule="evenodd" d="M0 21.26C0.77 22.51 1.48 23.66 2.35 24.74C2.48 23.82 2.52 23.32 2.21 22.38C2.64 23.27 2.57 23.95 2.47 24.89C2.96 25.48 3.5 26.06 4.13 26.62C4.65 25.99 4.73 24.32 4.64 23.55C4.86 24.26 4.8 26.07 4.27 26.74C5.02 27.39 5.85 27.82 6.64 28.38C6.79 28.49 6.85 28.79 6.84 28.89C6.37 28.35 5.53 27.91 4.93 27.47C4.81 27.38 4.66 27.37 4.52 27.43C3.73 27.79 2.86 27.95 2.06 27.74C2.9 27.85 3.78 27.7 4.63 27.24C4.45 27.1 4.28 26.97 4.11 26.83C3.88 26.64 3.67 26.45 3.46 26.26C3.4 26.2 3.32 26.18 3.23 26.19C2.37 26.35 1.45 26.27 0.75 25.86C1.57 26.16 2.36 26.24 3.23 26.03C2.75 25.55 2.34 25.04 1.97 24.51C1.9 24.41 1.82 24.35 1.71 24.3C1.18 24.09 0.8 23.91 0.38 23.48C0.94 23.85 1.15 23.97 1.75 24.19C1.14 23.28 0.61 22.3 0.01 21.25H0V21.26Z" fill="url(#paint25_linear_248_11278)"/>
<path fill-rule="evenodd" clip-rule="evenodd" d="M12.15 30.1101C12.48 29.5501 12.65 28.8801 12.69 28.1701C12.55 28.4101 12.37 28.5901 12.2 28.6701C12.31 28.4701 12.59 27.8401 12.7 27.4501C12.65 26.0101 12.19 24.4701 11.69 23.3101C10.86 23.9201 9.94 24.6901 9.17 25.5701C8.88 25.9001 8.72 26.2401 8.81 26.6601C8.64 26.5801 8.55 26.4801 8.53 26.3701C8.08 27.0101 7.73 27.6901 7.56 28.3801C7.44 28.8701 7.59 29.4101 7.87 29.9701C8.15 30.5301 8.58 31.0901 8.94 31.6501C9.45 31.5101 10.19 31.4101 10.8 31.1201C11.41 30.8301 11.94 30.4601 12.15 30.1001V30.1101Z" fill="url(#paint26_linear_248_11278)"/>
<path fill-rule="evenodd" clip-rule="evenodd" d="M11.6899 23.3C12.1999 24.46 12.6499 26.0001 12.6999 27.4401C12.5899 27.83 12.3099 28.45 12.1999 28.66C12.3699 28.58 12.5499 28.4 12.6899 28.16C12.6399 28.88 12.4799 29.55 12.1499 30.1C11.9399 30.4601 11.4099 30.8301 10.7999 31.1201C10.1899 31.4101 9.44994 31.51 8.93994 31.65C9.42994 30.51 10.0599 29.61 10.4599 28.48C11.0099 26.89 11.3499 25.06 11.6899 23.31V23.3Z" fill="url(#paint27_linear_248_11278)"/>
<path style="mix-blend-mode:multiply" fill-rule="evenodd" clip-rule="evenodd" d="M9.87001 30.37C11.06 30.09 12.53 28.93 12.7 28.23C12.65 28.92 12.48 29.56 12.16 30.1C11.95 30.46 11.42 30.83 10.81 31.12C10.2 31.41 9.46001 31.51 8.95001 31.65C8.59001 31.09 8.15001 30.53 7.88001 29.97C7.60001 29.41 7.45001 28.87 7.57001 28.38C7.69001 27.91 7.88001 27.45 8.14001 27C7.75001 28.25 7.87001 30.83 9.88001 30.37H9.87001Z" fill="url(#paint28_radial_248_11278)"/>
<path style="mix-blend-mode:screen" fill-rule="evenodd" clip-rule="evenodd" d="M10.21 24.51C10.28 24.99 10.37 25.34 10.55 25.7701C10.42 25.2401 10.34 24.82 10.41 24.33C10.52 24.23 10.63 24.14 10.74 24.05C10.7 24.28 10.69 24.4301 10.72 24.7001C10.78 25.1601 10.88 25.54 11.15 25.93C11.05 26.34 10.94 26.75 10.84 27.16C10.29 26.46 9.96995 25.71 9.94995 24.76C10.04 24.68 10.13 24.59 10.22 24.51H10.21Z" fill="url(#paint29_radial_248_11278)"/>
<path style="mix-blend-mode:screen" fill-rule="evenodd" clip-rule="evenodd" d="M10.48 28.4401C11.41 28.0301 12.34 26.9901 12.52 25.9401C12.6 26.3301 12.65 26.7301 12.68 27.1301C12.13 28.3601 11.46 28.9401 9.95996 29.5301C10.17 29.1501 10.29 28.8301 10.47 28.4401H10.48ZM11.69 27.3201C11.32 27.7801 10.99 27.9901 10.51 28.3001L10.66 27.8301C11 27.6101 11.26 27.4601 11.55 27.1801C11.9 26.8301 12.15 26.4401 12.38 25.9901C12.19 26.5401 11.99 26.9401 11.69 27.3201Z" fill="url(#paint30_radial_248_11278)"/>
<path style="mix-blend-mode:screen" fill-rule="evenodd" clip-rule="evenodd" d="M12.69 27.1901C12.5 26.1901 12.07 24.13 11.47 23.9C11.04 23.74 9.95002 24.7601 9.27002 25.4401C10.02 24.6101 10.89 23.88 11.69 23.3C12.17 24.39 12.6 25.82 12.69 27.18V27.1901Z" fill="url(#paint31_radial_248_11278)"/>
<path style="mix-blend-mode:screen" fill-rule="evenodd" clip-rule="evenodd" d="M10.09 29.34L9.86003 29.78C9.07003 28.94 8.78003 28.01 8.80003 27.01C8.96003 27.56 9.24003 27.93 9.56003 28.47C9.76003 28.8 9.91003 28.97 10.09 29.34Z" fill="url(#paint32_radial_248_11278)"/>
<path fill-rule="evenodd" clip-rule="evenodd" d="M11.6899 23.3C11.4499 24.18 11.2799 24.99 11.1099 25.8C10.9199 25.49 10.7199 24.85 10.6999 24.22C10.6399 24.91 10.7999 25.3 11.0699 25.99C10.9199 26.65 10.7599 27.3 10.5399 27.98C9.85992 26.89 9.74992 26.56 9.63992 25.23C9.53992 26.47 9.79992 27.15 10.4699 28.21C10.2699 28.79 10.0199 29.3901 9.67992 30.0301C9.67992 30.0501 9.65992 30.07 9.64992 30.09C8.79992 28.97 8.55992 28.38 8.41992 27.1C8.41992 28.3601 8.81992 29.29 9.56992 30.25C9.32992 30.7 9.07992 31.17 8.94992 31.66C9.11992 31.4 9.03992 31.5301 9.18992 31.2701C9.45992 30.7901 9.48992 30.82 9.74992 30.74C10.8399 30.42 11.9099 29.86 12.4999 28.91C11.6499 29.89 10.7999 30.32 9.51992 30.64C9.60992 30.46 9.70992 30.28 9.80992 30.1C10.0499 29.68 10.1199 29.5801 10.3899 29.4501C11.3999 28.9801 12.0499 28.49 12.5699 27.38C11.9299 28.49 11.4099 28.86 10.1699 29.4C10.3899 28.92 10.5699 28.4401 10.7199 27.9401C10.8599 27.4801 10.8499 27.5201 11.0599 27.3601C11.7799 26.8001 12.1299 26.37 12.3199 25.39C11.9799 26.41 11.5999 26.9 10.8899 27.3C11.1799 26.15 11.3899 24.88 11.6999 23.33L11.6899 23.3Z" fill="url(#paint33_linear_248_11278)"/>
<path fill-rule="evenodd" clip-rule="evenodd" d="M5.23003 20.32C5.53003 19.35 6.75003 18.87 6.57003 17.37C6.47003 16.59 5.98003 15.94 5.28003 15.25C4.60003 14.57 3.13003 13.69 3.12003 12.61C2.83003 13.45 2.42003 13.79 2.19003 14.48C2.09003 14.79 2.00003 15.17 1.93003 15.59C1.88003 15.91 1.93003 16.21 2.08003 16.49C2.14003 16.61 2.22003 16.72 2.31003 16.85C2.24003 16.81 2.09003 16.64 2.04003 16.6C2.00003 16.57 1.94003 16.58 1.90003 16.56C1.87003 16.54 1.84003 16.51 1.82003 16.48C1.76003 17.33 1.83003 18.18 2.15003 18.71C2.84003 19.86 3.92003 20.15 5.22003 20.31L5.23003 20.32Z" fill="url(#paint34_linear_248_11278)"/>
<path style="mix-blend-mode:screen" fill-rule="evenodd" clip-rule="evenodd" d="M2.27998 14.25C2.37998 14.74 2.53998 15.14 2.84998 15.74C2.66998 15.01 2.57998 14.34 2.57998 13.69C2.75998 13.39 2.95998 13.08 3.11998 12.61C3.03998 14.18 3.15998 15.63 3.48998 17.16C2.55998 16.62 2.25998 16.24 1.97998 15.3C2.00998 15.13 2.04998 14.97 2.08998 14.82C2.14998 14.95 2.22998 15.06 2.30998 15.17C2.23998 14.93 2.19998 14.75 2.16998 14.53C2.16998 14.51 2.17998 14.49 2.18998 14.47C2.21998 14.39 2.23998 14.31 2.27998 14.24V14.25Z" fill="url(#paint35_radial_248_11278)"/>
<path fill-rule="evenodd" clip-rule="evenodd" d="M3.62007 17.51C3.12007 16.17 3.05007 13.26 3.12007 12.61C3.12007 13.68 4.60007 14.56 5.28007 15.25C5.97007 15.94 6.47007 16.59 6.57007 17.37C6.75007 18.87 5.53007 19.35 5.23007 20.32C4.67007 19.32 3.98007 18.5 3.62007 17.51Z" fill="url(#paint36_linear_248_11278)"/>
<path style="mix-blend-mode:multiply" fill-rule="evenodd" clip-rule="evenodd" d="M4.55006 19.27C6.15006 18.68 6.31006 16.98 5.65006 15.64C6.14006 16.19 6.48006 16.74 6.56006 17.37C6.74006 18.87 5.52006 19.35 5.22006 20.32C3.92006 20.15 2.85006 19.87 2.15006 18.72C1.94006 18.36 1.83006 17.87 1.81006 17.32C1.94006 17.84 2.10006 18.21 2.48006 18.64C3.05006 19.3 3.85006 19.53 4.55006 19.27Z" fill="url(#paint37_radial_248_11278)"/>
<path style="mix-blend-mode:screen" fill-rule="evenodd" clip-rule="evenodd" d="M4.75988 16.4001C4.72988 17.3301 4.47988 17.7301 4.01988 18.3601C3.96988 18.2701 3.92988 18.1801 3.88988 18.1001C4.30988 17.4901 4.50988 17.0601 4.51988 16.3201C4.33988 16.9401 4.16988 17.2601 3.72988 17.7601C3.58988 17.4201 3.47988 17.1001 3.37988 16.6601C3.94988 15.5601 4.14988 15.2101 3.92988 14.0901C4.37988 14.5201 4.77988 15.2801 4.73988 16.4101L4.75988 16.4001Z" fill="url(#paint38_radial_248_11278)"/>
<path fill-rule="evenodd" clip-rule="evenodd" d="M3.11988 12.61C2.93988 13.52 3.10988 15.91 3.38988 17.05C2.56988 16.53 2.43988 16.38 2.01988 15.43C2.28988 16.32 2.55988 16.63 3.22988 17.1C3.53988 17.31 3.40988 17.18 3.53988 17.53C3.66988 17.86 3.84988 18.2 4.04988 18.55C2.96988 18.21 2.43988 17.73 1.87988 16.89C2.30988 17.77 2.96988 18.21 3.83988 18.62C4.04988 18.72 4.13988 18.71 4.25988 18.9C4.34988 19.04 4.43988 19.19 4.53988 19.33C4.16988 19.25 3.14988 18.86 2.51988 18.31C3.16988 18.94 3.82988 19.23 4.65988 19.51C4.85988 19.81 5.77988 21.2 5.92988 21.55C6.02988 20.72 5.80988 21.02 4.94988 19.6C5.55988 18.38 6.39988 17.63 5.92988 16.17C6.23988 17.62 5.49988 18.16 4.83988 19.45C4.65988 19.23 4.43988 18.92 4.23988 18.6C4.15988 18.47 4.11988 18.41 4.20988 18.27C4.63988 17.6 4.82988 16.96 4.76988 16.15C4.76988 17.11 4.54988 17.56 4.03988 18.26C3.77988 17.78 3.60988 17.24 3.47988 16.71C3.89988 15.82 4.22988 15.25 3.98988 14.24C4.07988 15.36 3.90988 15.62 3.44988 16.55C3.15988 15.2 3.11988 13.68 3.13988 12.64L3.11988 12.61Z" fill="url(#paint39_linear_248_11278)"/>
<path style="mix-blend-mode:screen" fill-rule="evenodd" clip-rule="evenodd" d="M4.8801 17.71C5.2501 16.73 5.2301 15.66 4.8501 14.87C5.0101 15 5.1501 15.13 5.2701 15.25C5.3701 15.35 5.4701 15.46 5.5701 15.56C5.7101 16.3 5.4301 17.13 4.8801 17.71Z" fill="url(#paint40_radial_248_11278)"/>
<path fill-rule="evenodd" clip-rule="evenodd" d="M7.53989 15.07C7.49989 14.61 6.83989 13.73 6.76989 13.27C6.61989 12.12 7.22989 11.04 7.99989 10.22C7.90989 10.51 7.96989 10.79 8.04989 11.08C8.06989 10.71 8.23989 10.1 8.48989 9.78004C9.16989 9.27004 10.1199 8.88004 10.8999 8.79004C11.5299 8.72004 12.1799 8.73004 12.7499 8.60004C12.3499 8.92004 12.1299 9.23004 11.9899 9.62004C11.7999 9.87004 11.6399 9.99004 11.3699 10.23C11.5799 10.23 11.7099 10.19 11.8599 10.14C11.7799 10.56 11.7299 11.07 11.6499 11.74C11.5799 12.27 11.5599 12.82 11.4099 13.34C11.1599 14.21 10.3399 15.17 9.34989 15.17C8.70989 15.17 8.17989 14.98 7.53989 15.07Z" fill="url(#paint41_linear_248_11278)"/>
<path fill-rule="evenodd" clip-rule="evenodd" d="M8.00009 10.22C7.24009 11.04 6.62009 12.12 6.77009 13.27C6.83009 13.73 7.50009 14.61 7.54009 15.07C8.53009 14.02 8.30009 12.5 9.52009 10.88C10.3601 9.76003 11.5701 8.92003 12.7401 8.59003C12.1701 8.72003 11.5201 8.71003 10.8901 8.78003C10.1101 8.87003 9.17009 9.26003 8.48009 9.77003C8.22009 10.09 8.06009 10.7 8.04009 11.07C7.95009 10.78 7.90009 10.5 7.99009 10.21L8.00009 10.22Z" fill="url(#paint42_linear_248_11278)"/>
<path style="mix-blend-mode:multiply" fill-rule="evenodd" clip-rule="evenodd" d="M8.04003 13.75C7.21003 12.93 7.27003 11.5 7.66003 10.62C7.06003 11.38 6.64003 12.3 6.77003 13.27C6.83003 13.73 7.50003 14.61 7.54003 15.07C8.17003 14.98 8.70003 15.17 9.35003 15.17C10.33 15.17 11.16 14.21 11.41 13.34C11.48 13.09 11.52 12.83 11.56 12.57C11.11 14.1 9.36003 15.04 8.05003 13.76L8.04003 13.75Z" fill="url(#paint43_radial_248_11278)"/>
<path style="mix-blend-mode:screen" fill-rule="evenodd" clip-rule="evenodd" d="M9.51005 9.79004C9.62005 9.48004 9.71005 9.29004 9.87005 9.04004C9.62005 9.13004 9.37005 9.24004 9.13005 9.37004C8.46005 10.38 8.27005 11.36 8.58005 12.6C9.23005 10.66 10.7901 9.19004 12.7401 8.60004C12.1701 8.73004 11.5201 8.72004 10.8901 8.79004C10.8701 8.79004 10.8601 8.79004 10.8401 8.79004C10.2901 9.02004 10.0401 9.37004 9.55005 9.98004C9.52005 10.02 9.47005 10 9.47005 9.95004C9.47005 9.90004 9.48005 9.84004 9.50005 9.79004H9.51005Z" fill="url(#paint44_radial_248_11278)"/>
<path style="mix-blend-mode:screen" fill-rule="evenodd" clip-rule="evenodd" d="M7.33008 12.3201C7.40008 12.7201 7.57008 13.0901 7.78008 13.5201C7.85008 13.6601 8.07008 14.1101 8.05008 14.1801C8.01008 14.3301 7.88008 14.6001 7.70008 14.8501C7.84008 14.6401 7.85008 14.4801 7.69008 14.0901C7.36008 13.3101 7.27008 13.1401 7.33008 12.3301V12.3201Z" fill="url(#paint45_radial_248_11278)"/>
<path style="mix-blend-mode:screen" fill-rule="evenodd" clip-rule="evenodd" d="M10.34 12.62C10.74 12.49 11.29 12.09 11.66 11.63C11.68 11.51 11.69 11.4 11.7 11.29C11.43 11.61 11.14 11.79 10.73 12C9.98004 12.37 9.52004 12.31 8.71004 12.29C8.65004 12.46 8.59004 12.61 8.54004 12.77C9.21004 12.85 9.83004 12.79 10.34 12.62Z" fill="url(#paint46_radial_248_11278)"/>
<path style="mix-blend-mode:screen" fill-rule="evenodd" clip-rule="evenodd" d="M9.6001 9.93005C9.9601 9.60005 10.5301 9.17005 10.9701 8.99005C11.1801 8.90005 11.7101 8.75005 11.9101 8.92005C11.9701 8.97005 12.0101 9.06005 11.9901 9.19005C11.9401 9.53005 11.6501 9.90005 11.4501 10.16C11.6701 9.97005 11.8101 9.85005 11.9801 9.63005C12.1201 9.24005 12.3401 8.93005 12.7401 8.61005C12.1701 8.74005 11.5201 8.73005 10.8901 8.80005C10.8701 8.80005 10.8601 8.80005 10.8401 8.80005C10.3001 9.03005 10.0501 9.36005 9.6001 9.93005Z" fill="url(#paint47_radial_248_11278)"/>
<path style="mix-blend-mode:screen" fill-rule="evenodd" clip-rule="evenodd" d="M8.47005 12.98C8.42005 13.18 8.36005 13.37 8.30005 13.56C8.57005 13.59 9.70005 13.67 10.06 13.39C10.14 13.33 10.12 13.27 10.26 13.13C10.4 12.99 10.58 12.91 10.71 12.74C9.99005 13.04 9.34005 13.08 8.46005 12.97L8.47005 12.98Z" fill="url(#paint48_radial_248_11278)"/>
<path fill-rule="evenodd" clip-rule="evenodd" d="M12.7401 8.60004C11.6701 8.94004 10.5901 9.63004 9.71008 10.72C10.5801 10.75 11.2901 10.36 11.8701 9.77004C11.2701 10.43 10.5401 10.86 9.63008 10.83C9.40008 11.12 9.19008 11.44 9.00008 11.79C8.91008 11.94 8.84008 12.1 8.77008 12.27C10.1201 12.29 10.8201 12.03 11.6501 11.38C11.2201 11.85 10.7101 12.13 10.2201 12.28C9.89008 12.38 9.33008 12.33 8.73008 12.38C8.57008 12.78 8.45008 13.22 8.32008 13.7C8.32008 13.73 8.30008 13.76 8.30008 13.78C9.60008 13.86 10.5001 13.88 11.4001 12.85C11.0701 13.32 10.6801 13.65 10.2401 13.8C9.81008 13.94 8.99008 13.86 8.26008 13.89C8.08008 14.41 7.75008 14.92 7.54008 15.08C7.79008 14.75 7.92008 14.48 8.03008 14.18C7.85008 13.62 7.53008 13.24 7.39008 12.78C7.23008 12.25 7.26008 11.66 7.53008 10.97C7.16008 12.4 7.57008 12.86 8.07008 14.07C8.12008 13.94 8.16008 13.8 8.21008 13.65C8.28008 13.43 8.34008 13.2 8.40008 12.97C8.49008 12.63 8.48008 12.58 8.46008 12.43C8.40008 11.92 8.35008 11.46 8.38008 11.02C8.40008 10.74 8.69008 10.11 9.01008 9.56004C8.47008 10.66 8.40008 11.23 8.56008 12.4C8.63008 12.18 8.72008 11.95 8.83008 11.73C9.50008 10.39 11.1801 8.94004 12.7301 8.61004L12.7401 8.60004Z" fill="url(#paint49_linear_248_11278)"/>
<path fill-rule="evenodd" clip-rule="evenodd" d="M6.60991 23.96C6.64991 23.75 6.63991 23.53 6.60991 23.3C6.46991 22.38 5.95991 20.81 6.73991 19.92C7.60991 18.93 8.31991 18.66 9.35991 18.16C10.0499 17.83 11.0699 17.25 11.5299 16.61C11.5299 17.29 12.0499 18.06 12.0099 18.96C11.9699 19.93 11.4599 21.96 10.7399 22.63C9.79991 23.48 8.17991 23.32 7.55991 23.44C7.43991 23.46 6.80991 23.79 6.61991 23.97L6.60991 23.96Z" fill="url(#paint50_linear_248_11278)"/>
<path style="mix-blend-mode:screen" fill-rule="evenodd" clip-rule="evenodd" d="M11.4299 21.49C10.9299 21.72 10.2499 21.83 9.48992 21.67C10.0099 21.62 10.5699 21.48 10.8999 20.99C10.3599 21.22 9.83992 21.14 9.13992 21.03C8.67992 21.28 8.30992 21.43 7.91992 21.77C9.06992 22.23 9.74992 22.59 10.9999 22.32C11.1599 22.09 11.2999 21.8 11.4299 21.48V21.49Z" fill="url(#paint51_radial_248_11278)"/>
<path fill-rule="evenodd" clip-rule="evenodd" d="M7.92991 21.67C8.46991 21.27 9.09991 21.03 9.65991 20.66C11.1899 19.64 11.4099 17.81 11.5299 16.61C11.0699 17.25 10.0499 17.83 9.35991 18.16C8.30991 18.66 7.59991 18.93 6.73991 19.92C5.95991 20.81 6.46991 22.39 6.60991 23.3C6.64991 23.53 6.65991 23.75 6.60991 23.96C6.88991 23.03 7.11991 22.27 7.92991 21.67Z" fill="url(#paint52_linear_248_11278)"/>
<path style="mix-blend-mode:multiply" fill-rule="evenodd" clip-rule="evenodd" d="M8.44991 22.98C7.32991 22.59 6.89991 21.23 7.17991 20.24C7.29991 19.82 7.89991 19.09 8.59991 18.52C7.92991 18.85 7.37991 19.19 6.73991 19.92C5.95991 20.81 6.46991 22.39 6.60991 23.3C6.64991 23.53 6.65991 23.75 6.60991 23.96C6.80991 23.78 7.43991 23.45 7.54991 23.43C8.06991 23.33 9.30991 23.43 10.2499 22.95C9.66991 23.16 9.15991 23.22 8.43991 22.97L8.44991 22.98Z" fill="url(#paint53_radial_248_11278)"/>
<path style="mix-blend-mode:screen" fill-rule="evenodd" clip-rule="evenodd" d="M10.6499 17.41C9.89989 18.24 9.15989 19.26 9.24989 20.43C9.25989 20.57 9.31989 20.7 9.34989 20.84C9.40989 20.8 9.46989 20.77 9.51989 20.74C9.56989 20.71 9.60989 20.68 9.64989 20.65C9.82989 20.53 9.99989 20.39 10.1499 20.25C10.1399 19.62 10.2399 18.98 10.4499 18.55C10.5399 19.06 10.5899 19.44 10.5199 19.84C11.2799 18.83 11.4299 17.53 11.5299 16.6C11.3199 16.89 10.9999 17.16 10.6499 17.41Z" fill="url(#paint54_radial_248_11278)"/>
<path style="mix-blend-mode:screen" fill-rule="evenodd" clip-rule="evenodd" d="M9.80005 17.94C10.19 17.79 10.68 17.57 11.06 17.6C11.66 17.64 11.85 18.52 11.88 19C11.91 19.54 11.82 20.05 11.74 20.57C11.9 19.97 12 19.37 12.02 18.97C12.06 18.07 11.54 17.29 11.54 16.62C11.17 17.13 10.44 17.61 9.81005 17.95L9.80005 17.94Z" fill="url(#paint55_radial_248_11278)"/>
<path fill-rule="evenodd" clip-rule="evenodd" d="M11.5301 16.61C11.3901 18.55 10.9001 19.86 9.73011 20.76C10.7001 20.69 11.0901 20.54 11.8501 19.78L11.6001 20.09C11.0501 20.68 10.4101 20.81 9.67011 20.88C9.59011 20.88 9.48011 20.94 9.27011 21.07C8.71011 21.4 8.33011 21.59 8.04011 21.75C9.00011 22.25 9.64011 22.46 10.7701 22.39C9.74011 22.57 8.99011 22.34 8.10011 21.91C7.98011 21.85 7.84011 21.86 7.73011 21.94C7.71011 21.95 7.70011 21.96 7.68011 21.98C7.27011 22.29 7.03011 22.75 6.61011 23.98C6.77011 23.09 7.01011 22.48 7.32011 22.08C7.38011 22 7.40011 21.9 7.37011 21.8C6.90011 20.46 7.39011 19.71 8.45011 18.76C8.19011 19.06 8.40011 18.82 8.13011 19.12C7.29011 20.03 7.06011 20.73 7.52011 21.87C7.79011 21.62 8.13011 21.47 8.55011 21.27C8.34011 20.2 8.64011 19.44 9.31011 18.59C9.52011 18.32 9.64011 18.21 9.90011 18C9.69011 18.22 9.53011 18.38 9.35011 18.63C8.73011 19.47 8.45011 20.19 8.66011 21.22C9.03011 21.04 9.45011 20.82 9.91011 20.45C11.1801 19.44 11.3601 17.87 11.5401 16.62L11.5301 16.61Z" fill="url(#paint56_linear_248_11278)"/>
<path fill-rule="evenodd" clip-rule="evenodd" d="M6.50993 36.3601C5.59993 36.4801 4.15993 35.5901 3.40993 34.4701C2.72993 33.4501 1.91993 31.8601 1.42993 30.9601C2.36993 31.4501 4.48993 30.6801 5.92993 30.8101C6.48993 30.8601 7.06993 31.1301 7.88993 31.9501C8.01993 31.9401 8.19993 31.9201 8.22993 31.9401C8.38993 32.0201 8.83993 32.3901 9.03993 32.8601C9.32993 33.5401 9.49993 34.5101 9.60993 34.8901C9.67993 35.1101 9.77993 35.3101 9.95993 35.5701C9.21993 35.5201 7.38993 36.2501 6.51993 36.3601H6.50993Z" fill="url(#paint57_linear_248_11278)"/>
<path style="mix-blend-mode:screen" fill-rule="evenodd" clip-rule="evenodd" d="M2.86999 31.16C3.88999 31.61 4.26999 32.07 4.63999 32.92C4.84999 32.99 5.05999 33.06 5.27999 33.13C4.99999 32.1 4.50999 31.45 3.43999 31.03C3.19999 31.06 2.95999 31.09 2.73999 31.11C2.77999 31.13 2.81999 31.14 2.86999 31.16Z" fill="url(#paint58_radial_248_11278)"/>
<path style="mix-blend-mode:screen" fill-rule="evenodd" clip-rule="evenodd" d="M4.99005 31.18C5.66005 31.75 5.96005 32.49 6.18005 33.31C6.34005 33.36 6.50005 33.41 6.66005 33.47C6.85005 33.54 7.04005 33.61 7.23005 33.68C7.09005 32.56 7.00005 31.49 5.98005 30.81C5.96005 30.81 5.95005 30.81 5.93005 30.81C5.51005 30.77 5.03005 30.81 4.55005 30.87C4.71005 30.96 4.86005 31.06 5.00005 31.17L4.99005 31.18Z" fill="url(#paint59_radial_248_11278)"/>
<path fill-rule="evenodd" clip-rule="evenodd" d="M3.40992 34.4701C4.15992 35.5901 5.59992 36.4701 6.50992 36.3601C7.38992 36.2501 9.20992 35.5201 9.94992 35.5701C8.99992 34.9001 8.27992 34.0601 7.00992 33.6001C5.15992 32.9401 3.30992 32.8701 1.41992 30.9601C1.90992 31.8601 2.71992 33.4501 3.39992 34.4701H3.40992Z" fill="url(#paint60_linear_248_11278)"/>
<path style="mix-blend-mode:multiply" fill-rule="evenodd" clip-rule="evenodd" d="M8.35996 32.26C8.95996 32.53 8.70996 34.36 8.39996 34.69C7.01996 36.15 5.56996 35.99 3.95996 35.14C4.73996 35.92 5.78996 36.45 6.50996 36.36C7.38996 36.25 9.20996 35.52 9.94996 35.57C9.76996 35.31 9.66996 35.11 9.59996 34.89C9.48996 34.51 9.31996 33.55 9.02996 32.86C8.83996 32.4 8.38996 32.02 8.21996 31.94C8.18996 31.93 8.00996 31.94 7.87996 31.95C7.57996 31.65 7.30996 31.42 7.05996 31.25C7.36996 31.57 7.44996 31.77 7.71996 32.16C7.94996 32.5 8.09996 32.14 8.34996 32.26H8.35996Z" fill="url(#paint61_radial_248_11278)"/>
<path style="mix-blend-mode:screen" fill-rule="evenodd" clip-rule="evenodd" d="M2.22992 32.47C2.09992 32.09 2.05992 31.66 2.50992 31.44C3.10992 31.15 3.99992 31.18 4.61992 31.15C5.01992 31.13 5.23992 30.82 6.34992 30.9C6.19992 30.85 6.05992 30.83 5.91992 30.81C4.47992 30.69 2.35992 31.45 1.41992 30.96C1.63992 31.36 1.91992 31.9 2.22992 32.46V32.47Z" fill="url(#paint62_radial_248_11278)"/>
<path style="mix-blend-mode:screen" fill-rule="evenodd" clip-rule="evenodd" d="M2.93004 33.71C3.57004 34.27 4.36004 34.75 5.24004 34.78C6.28004 34.81 7.15004 34.01 8.18004 34.2C7.65004 33.88 7.40004 33.73 7.13004 33.69C6.59004 33.61 5.71004 33.91 5.10004 33.94C4.22004 33.98 3.45004 33.66 2.75004 33.17C2.68004 33.12 2.61004 33.07 2.54004 33.01C2.67004 33.25 2.80004 33.48 2.94004 33.71H2.93004Z" fill="url(#paint63_radial_248_11278)"/>
<path fill-rule="evenodd" clip-rule="evenodd" d="M1.42992 30.9601C2.40992 31.9101 3.52992 32.4301 4.52992 32.7701C4.08992 31.8801 3.79992 31.6501 2.87992 31.1601C3.86992 31.5301 4.22992 31.9101 4.69992 32.8301C5.21992 33.0001 5.70992 33.1201 6.10992 33.2201C5.89992 32.4801 5.70992 32.0201 4.98992 31.1701C5.40992 31.6201 5.65992 31.8501 5.84992 32.1801C6.02992 32.4901 6.13992 32.8301 6.26992 33.2701C6.42992 33.3101 6.57992 33.3501 6.69992 33.4001C7.18992 33.5601 7.59992 33.7301 7.98992 33.9501C8.00992 33.2601 7.98992 33.0301 7.85992 32.3801C8.08992 32.9901 8.15992 33.3901 8.15992 34.0501C8.72992 34.4001 9.26992 34.8701 9.93992 35.5701C9.39992 35.1501 8.99992 34.7901 8.50992 34.4801C7.03992 35.9301 5.70992 35.9501 4.00992 34.8801C5.71992 35.7301 6.91992 35.7501 8.32992 34.3601C8.03992 34.1901 7.70992 34.0301 7.29992 33.8701C7.06992 33.7801 6.86992 33.7201 6.37992 33.8101C4.98992 34.0601 4.02992 34.1301 2.72992 33.1701C4.28992 34.0801 4.89992 33.9401 6.50992 33.6201C4.63992 33.0501 2.76992 32.5801 1.41992 30.9701L1.42992 30.9601Z" fill="url(#paint64_linear_248_11278)"/>
<path fill-rule="evenodd" clip-rule="evenodd" d="M50.31 42.02C54.1 39.74 57.08 36.45 58.99 32.58C61.89 26.68 62.46 18.61 58.66 13.14C61.23 18.74 61.35 25.41 57.86 32.01C55.96 35.59 53.1 38.62 49.49 40.68C49.11 40.9 48.98 41.38 49.19 41.76C49.41 42.14 49.89 42.27 50.27 42.05C50.28 42.05 50.3 42.03 50.31 42.03V42.02Z" fill="url(#paint65_linear_248_11278)"/>
<path style="mix-blend-mode:screen" fill-rule="evenodd" clip-rule="evenodd" d="M53 39.86C54.99 38.23 56.22 36.84 57.6 34.67C59.56 31.58 60.68 28.2 61.07 24.57C61.43 21.23 60.97 18.98 60.03 15.97C60.81 19.13 61.13 21.4 60.73 24.49C60.27 28.07 59.15 31.4 57.14 34.33C55.66 36.49 54.32 37.5 52.53 39.27C52.14 39.65 52.16 39.83 52.26 39.95C52.37 40.1 52.64 40.15 53 39.85V39.86Z" fill="url(#paint66_radial_248_11278)"/>
<path fill-rule="evenodd" clip-rule="evenodd" d="M63.45 28.74C64 28.67 64.57 28.44 64.98 28.05C65.78 27.3 66.34 26.56 66.65 25.74C66.37 25.92 66.1 26.03 65.72 26.13C66.07 25.96 66.5 25.63 66.77 25.36C66.77 25.33 66.78 25.31 66.79 25.28C67.06 24.14 66.97 22.14 67.18 21.26C66.4 21.71 65.45 22.01 64.53 22.39C64.39 22.45 64.26 22.5 64.12 22.56C64.09 22.73 64.08 22.92 64.05 23.08C64.02 23.25 63.92 23.2 63.85 23.08C63.79 22.98 63.76 22.85 63.74 22.74C62.2 23.45 60.69 24.49 60.65 26.01C60.63 26.83 61.14 27.45 60.9 28.33C61.54 28.31 62.66 28.86 63.46 28.75L63.45 28.74Z" fill="url(#paint67_linear_248_11278)"/>
<path fill-rule="evenodd" clip-rule="evenodd" d="M63.5299 26.32C65.1099 24.79 66.0399 23.12 67.1699 21.26C66.9599 22.14 67.0599 24.14 66.7799 25.28C66.7799 25.31 66.7699 25.33 66.7599 25.36C66.4899 25.63 66.0599 25.96 65.7099 26.13C66.0899 26.04 66.3499 25.93 66.6399 25.74C66.3399 26.56 65.7799 27.3 64.9699 28.05C64.5499 28.44 63.9899 28.66 63.4399 28.74C62.6499 28.85 61.5199 28.3 60.8799 28.32C61.8699 27.66 62.6499 27.16 63.5199 26.32H63.5299Z" fill="url(#paint68_linear_248_11278)"/>
<path style="mix-blend-mode:screen" fill-rule="evenodd" clip-rule="evenodd" d="M66.84 23.19C66.83 22.64 66.74 22.11 66.49 21.99C66.15 21.83 65.31 22.09 64.71 22.31C65.57 21.97 66.45 21.68 67.18 21.26C66.97 22.14 67.07 24.14 66.79 25.28C66.79 25.31 66.78 25.33 66.77 25.36C66.73 25.4 66.68 25.45 66.63 25.49C66.8 24.74 66.86 23.96 66.84 23.19ZM66.65 25.74C66.58 25.94 66.49 26.14 66.38 26.34C66.45 26.16 66.5 25.99 66.55 25.8C66.58 25.78 66.61 25.76 66.65 25.74Z" fill="url(#paint69_radial_248_11278)"/>
<path style="mix-blend-mode:screen" fill-rule="evenodd" clip-rule="evenodd" d="M64.4599 25.34C64.1399 24.32 64.0299 23.53 64.2099 22.51C64.3099 22.47 64.4199 22.42 64.5199 22.38C64.6999 22.31 64.8799 22.24 65.0599 22.17C64.5699 23.09 64.6599 24.44 64.8199 24.9C64.7099 25.05 64.5899 25.2 64.4699 25.34H64.4599Z" fill="url(#paint70_radial_248_11278)"/>
<path style="mix-blend-mode:screen" fill-rule="evenodd" clip-rule="evenodd" d="M63.2898 22.9401C63.3898 23.9201 63.8598 24.9801 64.2498 25.5801C63.8798 25.9901 63.4798 26.3601 63.0498 26.7301C62.4298 25.8801 62.4198 24.3801 62.5598 23.3501C62.7898 23.2001 63.0398 23.0701 63.2898 22.9401Z" fill="url(#paint71_radial_248_11278)"/>
<path style="mix-blend-mode:multiply" fill-rule="evenodd" clip-rule="evenodd" d="M62 24.63C61.03 27.01 63.76 29.2 66.2 26.64C65.89 27.12 65.48 27.59 64.98 28.05C64.56 28.44 64 28.66 63.45 28.74C62.66 28.85 61.53 28.3 60.89 28.32C61.13 27.44 60.62 26.82 60.64 26C60.68 24.6 61.97 23.61 63.37 22.9C62.7 23.43 62.38 23.7 62 24.64V24.63Z" fill="url(#paint72_radial_248_11278)"/>
<path style="mix-blend-mode:screen" fill-rule="evenodd" clip-rule="evenodd" d="M66.0899 26.8C65.1399 27.06 64.0399 27.01 63.1299 26.67C63.2499 26.57 63.3599 26.4701 63.4799 26.3601C64.4299 26.6501 65.5499 26.58 66.3899 26.3C66.2999 26.47 66.1999 26.64 66.0899 26.8ZM62.9499 26.83C63.7799 27.19 64.4699 27.3201 65.3299 27.2901C65.2599 27.3601 65.1799 27.44 65.0799 27.47C64.1799 27.71 63.3799 27.5101 62.5999 27.1201C62.7199 27.0201 62.8399 26.92 62.9499 26.83Z" fill="url(#paint73_radial_248_11278)"/>
<path fill-rule="evenodd" clip-rule="evenodd" d="M67.1699 21.26C66.3999 22.51 65.6899 23.66 64.8199 24.74C64.6899 23.82 64.6499 23.32 64.9599 22.38C64.5299 23.27 64.5999 23.95 64.6999 24.89C64.2099 25.48 63.6699 26.06 63.0399 26.62C62.5199 25.99 62.4399 24.32 62.5299 23.55C62.3099 24.26 62.3699 26.07 62.8999 26.74C62.1499 27.39 61.3199 27.82 60.5299 28.38C60.3799 28.49 60.3199 28.79 60.3299 28.89C60.7999 28.35 61.6399 27.91 62.2399 27.47C62.3599 27.38 62.5099 27.37 62.6499 27.43C63.4399 27.79 64.3099 27.95 65.1099 27.74C64.2699 27.85 63.3899 27.7 62.5399 27.24C62.7199 27.1 62.8899 26.97 63.0599 26.83C63.2899 26.64 63.4999 26.45 63.7099 26.26C63.7699 26.2 63.8499 26.18 63.9399 26.19C64.7999 26.35 65.7199 26.27 66.4199 25.86C65.5999 26.16 64.8099 26.24 63.9399 26.03C64.4199 25.55 64.8299 25.04 65.1999 24.51C65.2699 24.41 65.3499 24.35 65.4599 24.3C65.9899 24.09 66.3699 23.91 66.7899 23.48C66.2299 23.85 66.0199 23.97 65.4199 24.19C66.0299 23.28 66.5599 22.3 67.1599 21.25L67.1699 21.26Z" fill="url(#paint74_linear_248_11278)"/>
<path fill-rule="evenodd" clip-rule="evenodd" d="M55.02 30.1101C54.69 29.5501 54.52 28.8801 54.48 28.1701C54.62 28.4101 54.8 28.5901 54.97 28.6701C54.86 28.4701 54.58 27.8401 54.47 27.4501C54.52 26.0101 54.98 24.4701 55.48 23.3101C56.31 23.9201 57.23 24.6901 58 25.5701C58.29 25.9001 58.45 26.2401 58.36 26.6601C58.53 26.5801 58.62 26.4801 58.64 26.3701C59.09 27.0101 59.44 27.6901 59.61 28.3801C59.73 28.8701 59.58 29.4101 59.3 29.9701C59.02 30.5301 58.59 31.0901 58.23 31.6501C57.72 31.5101 56.98 31.4101 56.37 31.1201C55.76 30.8301 55.23 30.4601 55.02 30.1001V30.1101Z" fill="url(#paint75_linear_248_11278)"/>
<path fill-rule="evenodd" clip-rule="evenodd" d="M55.48 23.3C54.97 24.46 54.52 26.0001 54.47 27.4401C54.58 27.83 54.86 28.45 54.97 28.66C54.8 28.58 54.61 28.4 54.48 28.16C54.53 28.88 54.69 29.55 55.02 30.1C55.23 30.4601 55.76 30.8301 56.37 31.1201C56.98 31.4101 57.72 31.51 58.23 31.65C57.74 30.51 57.11 29.61 56.71 28.48C56.16 26.89 55.82 25.06 55.48 23.31V23.3Z" fill="url(#paint76_linear_248_11278)"/>
<path style="mix-blend-mode:multiply" fill-rule="evenodd" clip-rule="evenodd" d="M57.31 30.37C56.12 30.09 54.65 28.93 54.48 28.23C54.53 28.92 54.7 29.56 55.02 30.1C55.23 30.46 55.76 30.83 56.37 31.12C56.98 31.41 57.72 31.51 58.23 31.65C58.59 31.09 59.03 30.53 59.3 29.97C59.58 29.41 59.73 28.87 59.61 28.38C59.49 27.91 59.3 27.45 59.04 27C59.43 28.25 59.31 30.83 57.3 30.37H57.31Z" fill="url(#paint77_radial_248_11278)"/>
<path style="mix-blend-mode:screen" fill-rule="evenodd" clip-rule="evenodd" d="M56.96 24.51C56.89 24.99 56.8 25.34 56.62 25.7701C56.75 25.2401 56.83 24.82 56.76 24.33C56.65 24.23 56.54 24.14 56.43 24.05C56.47 24.28 56.48 24.4301 56.45 24.7001C56.39 25.1601 56.29 25.54 56.02 25.93C56.12 26.34 56.23 26.75 56.33 27.16C56.88 26.46 57.2 25.71 57.22 24.76C57.13 24.68 57.04 24.59 56.95 24.51H56.96Z" fill="url(#paint78_radial_248_11278)"/>
<path style="mix-blend-mode:screen" fill-rule="evenodd" clip-rule="evenodd" d="M56.69 28.4401C55.76 28.0301 54.83 26.9901 54.65 25.9401C54.57 26.3301 54.52 26.7301 54.49 27.1301C55.04 28.3601 55.71 28.9401 57.21 29.5301C57 29.1501 56.88 28.8301 56.7 28.4401H56.69ZM55.48 27.3201C55.85 27.7801 56.18 27.9901 56.66 28.3001L56.51 27.8301C56.17 27.6101 55.91 27.4601 55.62 27.1801C55.27 26.8301 55.02 26.4401 54.79 25.9901C54.98 26.5401 55.18 26.9401 55.48 27.3201Z" fill="url(#paint79_radial_248_11278)"/>
<path style="mix-blend-mode:screen" fill-rule="evenodd" clip-rule="evenodd" d="M54.48 27.1901C54.67 26.1901 55.1 24.13 55.7 23.9C56.13 23.74 57.22 24.7601 57.9 25.4401C57.15 24.6101 56.28 23.88 55.48 23.3C55 24.39 54.57 25.82 54.48 27.18V27.1901Z" fill="url(#paint80_radial_248_11278)"/>
<path style="mix-blend-mode:screen" fill-rule="evenodd" clip-rule="evenodd" d="M57.0798 29.34L57.3098 29.78C58.0998 28.94 58.3898 28.01 58.3698 27.01C58.2098 27.56 57.9298 27.93 57.6098 28.47C57.4098 28.8 57.2598 28.97 57.0798 29.34Z" fill="url(#paint81_radial_248_11278)"/>
<path fill-rule="evenodd" clip-rule="evenodd" d="M55.4799 23.3C55.7199 24.18 55.8899 24.99 56.0599 25.8C56.2499 25.49 56.4499 24.85 56.4699 24.22C56.5299 24.91 56.3699 25.3 56.0999 25.99C56.2499 26.65 56.4099 27.3 56.6299 27.98C57.3099 26.89 57.4199 26.56 57.5299 25.23C57.6299 26.47 57.3699 27.15 56.6999 28.21C56.8999 28.79 57.1499 29.3901 57.4899 30.0301C57.4899 30.0501 57.5099 30.07 57.5199 30.09C58.3699 28.97 58.6099 28.38 58.7499 27.1C58.7499 28.3601 58.3499 29.29 57.5999 30.25C57.8399 30.7 58.0899 31.17 58.2199 31.66C58.0499 31.4 58.1299 31.5301 57.9799 31.2701C57.7099 30.7901 57.6799 30.82 57.4199 30.74C56.3299 30.42 55.2599 29.86 54.6699 28.91C55.5199 29.89 56.3699 30.32 57.6499 30.64C57.5599 30.46 57.4599 30.28 57.3599 30.1C57.1199 29.68 57.0499 29.5801 56.7799 29.4501C55.7699 28.9801 55.1199 28.49 54.5999 27.38C55.2399 28.49 55.7599 28.86 56.9999 29.4C56.7799 28.92 56.5999 28.4401 56.4499 27.9401C56.3099 27.4801 56.3199 27.5201 56.1099 27.3601C55.3899 26.8001 55.0399 26.37 54.8499 25.39C55.1899 26.41 55.5699 26.9 56.2799 27.3C55.9899 26.15 55.7799 24.88 55.4699 23.33L55.4799 23.3Z" fill="url(#paint82_linear_248_11278)"/>
<path fill-rule="evenodd" clip-rule="evenodd" d="M61.9401 20.32C61.6401 19.35 60.4201 18.87 60.6001 17.37C60.7001 16.59 61.1901 15.94 61.8901 15.25C62.5701 14.57 64.0401 13.69 64.0501 12.61C64.3401 13.45 64.7501 13.79 64.9801 14.48C65.0801 14.79 65.1701 15.17 65.2401 15.59C65.2901 15.91 65.2401 16.21 65.0901 16.49C65.0301 16.61 64.9501 16.72 64.8601 16.85C64.9301 16.81 65.0801 16.64 65.1301 16.6C65.1701 16.57 65.2301 16.58 65.2701 16.56C65.3001 16.54 65.3301 16.51 65.3501 16.48C65.4101 17.33 65.3401 18.18 65.0201 18.71C64.3301 19.86 63.2501 20.15 61.9501 20.31L61.9401 20.32Z" fill="url(#paint83_linear_248_11278)"/>
<path style="mix-blend-mode:screen" fill-rule="evenodd" clip-rule="evenodd" d="M64.8899 14.25C64.7899 14.74 64.6299 15.14 64.3199 15.74C64.4999 15.01 64.5899 14.34 64.5899 13.69C64.4099 13.39 64.2099 13.08 64.0499 12.61C64.1299 14.18 64.0099 15.63 63.6799 17.16C64.6099 16.62 64.9099 16.24 65.1899 15.3C65.1599 15.13 65.1199 14.97 65.0799 14.82C65.0199 14.95 64.9399 15.06 64.8599 15.17C64.9299 14.93 64.9699 14.75 64.9999 14.53C64.9999 14.51 64.9899 14.49 64.9799 14.47C64.9499 14.39 64.9299 14.31 64.8899 14.24V14.25Z" fill="url(#paint84_radial_248_11278)"/>
<path fill-rule="evenodd" clip-rule="evenodd" d="M63.5601 17.51C64.0601 16.17 64.1301 13.26 64.0601 12.61C64.0601 13.68 62.5801 14.56 61.9001 15.25C61.2101 15.94 60.7101 16.59 60.6101 17.37C60.4301 18.87 61.6501 19.35 61.9501 20.32C62.5101 19.32 63.2001 18.5 63.5601 17.51Z" fill="url(#paint85_linear_248_11278)"/>
<path style="mix-blend-mode:multiply" fill-rule="evenodd" clip-rule="evenodd" d="M62.6201 19.27C61.0201 18.68 60.8601 16.98 61.5201 15.64C61.0301 16.19 60.6901 16.74 60.6101 17.37C60.4301 18.87 61.6501 19.35 61.9501 20.32C63.2501 20.15 64.3201 19.87 65.0201 18.72C65.2301 18.36 65.3401 17.87 65.3601 17.32C65.2301 17.84 65.0701 18.21 64.6901 18.64C64.1201 19.3 63.3201 19.53 62.6201 19.27Z" fill="url(#paint86_radial_248_11278)"/>
<path style="mix-blend-mode:screen" fill-rule="evenodd" clip-rule="evenodd" d="M62.4099 16.4001C62.4399 17.3301 62.6899 17.7301 63.1499 18.3601C63.1899 18.2701 63.2399 18.1801 63.2799 18.1001C62.8599 17.4901 62.6599 17.0601 62.6499 16.3201C62.8299 16.9401 62.9999 17.2601 63.4399 17.7601C63.5799 17.4201 63.6899 17.1001 63.7899 16.6601C63.2199 15.5601 63.0199 15.2101 63.2399 14.0901C62.7899 14.5201 62.3899 15.2801 62.4299 16.4101L62.4099 16.4001Z" fill="url(#paint87_radial_248_11278)"/>
<path fill-rule="evenodd" clip-rule="evenodd" d="M64.0499 12.61C64.2299 13.52 64.0599 15.91 63.7799 17.05C64.5999 16.53 64.7299 16.38 65.1499 15.43C64.8799 16.32 64.6099 16.63 63.9399 17.1C63.6299 17.31 63.7599 17.18 63.6299 17.53C63.4999 17.86 63.3199 18.2 63.1199 18.55C64.1999 18.21 64.7299 17.73 65.2899 16.89C64.8599 17.77 64.1999 18.21 63.3299 18.62C63.1199 18.72 63.0299 18.71 62.9099 18.9C62.8199 19.04 62.7299 19.19 62.6299 19.33C62.9999 19.25 64.0199 18.86 64.6499 18.31C63.9999 18.94 63.3399 19.23 62.5099 19.51C62.3099 19.81 61.3899 21.2 61.2399 21.55C61.1399 20.72 61.3599 21.02 62.2199 19.6C61.6099 18.38 60.7699 17.63 61.2399 16.17C60.9299 17.62 61.6699 18.16 62.3299 19.45C62.5099 19.23 62.7299 18.92 62.9299 18.6C63.0099 18.47 63.0499 18.41 62.9599 18.27C62.5299 17.6 62.3399 16.96 62.3999 16.15C62.3999 17.11 62.6199 17.56 63.1299 18.26C63.3899 17.78 63.5599 17.24 63.6899 16.71C63.2699 15.82 62.9399 15.25 63.1799 14.24C63.0899 15.36 63.2599 15.62 63.7199 16.55C64.0099 15.2 64.0499 13.68 64.0299 12.64L64.0499 12.61Z" fill="url(#paint88_linear_248_11278)"/>
<path style="mix-blend-mode:screen" fill-rule="evenodd" clip-rule="evenodd" d="M62.2899 17.71C61.9199 16.73 61.9399 15.66 62.3199 14.87C62.1599 15 62.0199 15.13 61.8999 15.25C61.7999 15.35 61.6999 15.46 61.5999 15.56C61.4599 16.3 61.7399 17.13 62.2899 17.71Z" fill="url(#paint89_radial_248_11278)"/>
<path fill-rule="evenodd" clip-rule="evenodd" d="M59.6299 15.07C59.6699 14.61 60.3299 13.73 60.3999 13.27C60.5499 12.12 59.9399 11.04 59.1699 10.22C59.2599 10.51 59.1999 10.79 59.1199 11.08C59.0999 10.71 58.9299 10.1 58.6799 9.78004C57.9999 9.27004 57.0499 8.88004 56.2699 8.79004C55.6399 8.72004 54.9899 8.73004 54.4199 8.60004C54.8199 8.92004 55.0399 9.23004 55.1799 9.62004C55.3699 9.87004 55.5299 9.99004 55.7999 10.23C55.5899 10.23 55.4599 10.19 55.3099 10.14C55.3899 10.56 55.4399 11.07 55.5199 11.74C55.5899 12.27 55.6099 12.82 55.7599 13.34C56.0099 14.21 56.8299 15.17 57.8199 15.17C58.4599 15.17 58.9899 14.98 59.6299 15.07Z" fill="url(#paint90_linear_248_11278)"/>
<path fill-rule="evenodd" clip-rule="evenodd" d="M59.1699 10.22C59.9299 11.04 60.5499 12.12 60.3999 13.27C60.3399 13.73 59.6699 14.61 59.6299 15.07C58.6399 14.02 58.8699 12.5 57.6399 10.88C56.7999 9.76003 55.5899 8.92003 54.4199 8.59003C54.9899 8.72003 55.6399 8.71003 56.2699 8.78003C57.0499 8.87003 57.9899 9.26003 58.6799 9.77003C58.9399 10.09 59.0999 10.7 59.1199 11.07C59.2099 10.78 59.2599 10.5 59.1699 10.21V10.22Z" fill="url(#paint91_linear_248_11278)"/>
<path style="mix-blend-mode:multiply" fill-rule="evenodd" clip-rule="evenodd" d="M59.1299 13.75C59.9599 12.93 59.8999 11.5 59.5099 10.62C60.1099 11.38 60.5299 12.3 60.3999 13.27C60.3399 13.73 59.6699 14.61 59.6299 15.07C58.9999 14.98 58.4699 15.17 57.8199 15.17C56.8399 15.17 56.0099 14.21 55.7599 13.34C55.6899 13.09 55.6499 12.83 55.6099 12.57C56.0599 14.1 57.8099 15.04 59.1199 13.76L59.1299 13.75Z" fill="url(#paint92_radial_248_11278)"/>
<path style="mix-blend-mode:screen" fill-rule="evenodd" clip-rule="evenodd" d="M57.6599 9.79004C57.5499 9.48004 57.4599 9.29004 57.2999 9.04004C57.5499 9.13004 57.7999 9.24004 58.0399 9.37004C58.7099 10.38 58.8999 11.36 58.5899 12.6C57.9399 10.66 56.3799 9.19004 54.4299 8.60004C54.9999 8.73004 55.6499 8.72004 56.2799 8.79004C56.2999 8.79004 56.3099 8.79004 56.3299 8.79004C56.8799 9.02004 57.1299 9.37004 57.6199 9.98004C57.6499 10.02 57.6999 10 57.6999 9.95004C57.6999 9.90004 57.6899 9.84004 57.6699 9.79004H57.6599Z" fill="url(#paint93_radial_248_11278)"/>
<path style="mix-blend-mode:screen" fill-rule="evenodd" clip-rule="evenodd" d="M59.8399 12.3201C59.7699 12.7201 59.5999 13.0901 59.3899 13.5201C59.3199 13.6601 59.0999 14.1101 59.1199 14.1801C59.1599 14.3301 59.2899 14.6001 59.4699 14.8501C59.3299 14.6401 59.3199 14.4801 59.4799 14.0901C59.8099 13.3101 59.8999 13.1401 59.8399 12.3301V12.3201Z" fill="url(#paint94_radial_248_11278)"/>
<path style="mix-blend-mode:screen" fill-rule="evenodd" clip-rule="evenodd" d="M56.83 12.62C56.43 12.49 55.88 12.09 55.51 11.63C55.49 11.51 55.48 11.4 55.47 11.29C55.74 11.61 56.03 11.79 56.44 12C57.19 12.37 57.65 12.31 58.47 12.29C58.53 12.46 58.59 12.61 58.64 12.77C57.97 12.85 57.35 12.79 56.84 12.62H56.83Z" fill="url(#paint95_radial_248_11278)"/>
<path style="mix-blend-mode:screen" fill-rule="evenodd" clip-rule="evenodd" d="M57.5699 9.93005C57.1999 9.60005 56.6399 9.17005 56.1999 8.99005C55.9899 8.90005 55.4599 8.75005 55.2599 8.92005C55.1999 8.97005 55.1599 9.06005 55.1799 9.19005C55.2299 9.53005 55.5199 9.90005 55.7199 10.16C55.4999 9.97005 55.3599 9.85005 55.1899 9.63005C55.0499 9.24005 54.8299 8.93005 54.4299 8.61005C54.9999 8.74005 55.6499 8.73005 56.2799 8.80005C56.2999 8.80005 56.3099 8.80005 56.3299 8.80005C56.8699 9.03005 57.1199 9.36005 57.5699 9.93005Z" fill="url(#paint96_radial_248_11278)"/>
<path style="mix-blend-mode:screen" fill-rule="evenodd" clip-rule="evenodd" d="M58.7 12.98C58.75 13.18 58.81 13.37 58.87 13.56C58.6 13.59 57.47 13.67 57.11 13.39C57.03 13.33 57.05 13.27 56.91 13.13C56.77 12.99 56.59 12.91 56.46 12.74C57.18 13.04 57.83 13.08 58.71 12.97L58.7 12.98Z" fill="url(#paint97_radial_248_11278)"/>
<path fill-rule="evenodd" clip-rule="evenodd" d="M54.4299 8.60004C55.4999 8.94004 56.5799 9.63004 57.4599 10.72C56.5899 10.75 55.8799 10.36 55.2999 9.77004C55.8999 10.43 56.6299 10.86 57.5399 10.83C57.7699 11.12 57.9799 11.44 58.1699 11.79C58.2599 11.94 58.3299 12.1 58.3999 12.27C57.0499 12.29 56.3499 12.03 55.5199 11.38C55.9499 11.85 56.4599 12.13 56.9499 12.28C57.2799 12.38 57.8399 12.33 58.4399 12.38C58.5999 12.78 58.7199 13.22 58.8499 13.7C58.8499 13.73 58.8699 13.76 58.8699 13.78C57.5699 13.86 56.6699 13.88 55.7699 12.85C56.0999 13.32 56.4899 13.65 56.9299 13.8C57.3599 13.94 58.1799 13.86 58.9099 13.89C59.0899 14.41 59.4199 14.92 59.6299 15.08C59.3799 14.75 59.2499 14.48 59.1399 14.18C59.3199 13.62 59.6399 13.24 59.7799 12.78C59.9399 12.25 59.9199 11.66 59.6399 10.97C60.0099 12.4 59.5999 12.86 59.0999 14.07C59.0499 13.94 59.0099 13.8 58.9599 13.65C58.8899 13.43 58.8299 13.2 58.7699 12.97C58.6799 12.63 58.6899 12.58 58.7099 12.43C58.7699 11.92 58.8199 11.46 58.7899 11.02C58.7699 10.74 58.4799 10.11 58.1599 9.56004C58.6999 10.66 58.7699 11.23 58.6099 12.4C58.5399 12.18 58.4499 11.95 58.3399 11.73C57.6699 10.39 55.9899 8.94004 54.4399 8.61004L54.4299 8.60004Z" fill="url(#paint98_linear_248_11278)"/>
<path fill-rule="evenodd" clip-rule="evenodd" d="M60.5599 23.96C60.5199 23.75 60.5299 23.53 60.5599 23.3C60.6999 22.38 61.2099 20.81 60.4299 19.92C59.5699 18.93 58.8499 18.66 57.8099 18.16C57.1199 17.83 56.0999 17.25 55.6399 16.61C55.6399 17.29 55.1199 18.06 55.1599 18.96C55.1999 19.93 55.7099 21.96 56.4299 22.63C57.3699 23.48 58.9899 23.32 59.6099 23.44C59.7299 23.46 60.3599 23.79 60.5499 23.97L60.5599 23.96Z" fill="url(#paint99_linear_248_11278)"/>
<path style="mix-blend-mode:screen" fill-rule="evenodd" clip-rule="evenodd" d="M55.74 21.49C56.24 21.72 56.92 21.83 57.68 21.67C57.16 21.62 56.6 21.48 56.27 20.99C56.81 21.22 57.33 21.14 58.03 21.03C58.49 21.28 58.86 21.43 59.25 21.77C58.1 22.23 57.42 22.59 56.17 22.32C56.01 22.09 55.87 21.8 55.74 21.48V21.49Z" fill="url(#paint100_radial_248_11278)"/>
<path fill-rule="evenodd" clip-rule="evenodd" d="M59.2399 21.67C58.6999 21.27 58.0699 21.03 57.5099 20.66C55.9799 19.64 55.7599 17.81 55.6399 16.61C56.0999 17.25 57.1199 17.83 57.8099 18.16C58.8599 18.66 59.5699 18.93 60.4299 19.92C61.2099 20.81 60.6999 22.39 60.5599 23.3C60.5199 23.53 60.5099 23.75 60.5599 23.96C60.2799 23.03 60.0499 22.27 59.2399 21.67Z" fill="url(#paint101_linear_248_11278)"/>
<path style="mix-blend-mode:multiply" fill-rule="evenodd" clip-rule="evenodd" d="M58.7199 22.98C59.8399 22.59 60.2699 21.23 59.9899 20.24C59.8699 19.82 59.2699 19.09 58.5699 18.52C59.2399 18.85 59.7899 19.19 60.4299 19.92C61.2099 20.81 60.6999 22.39 60.5599 23.3C60.5199 23.53 60.5099 23.75 60.5599 23.96C60.3599 23.78 59.7299 23.45 59.6199 23.43C59.0999 23.33 57.8599 23.43 56.9199 22.95C57.4999 23.16 58.0099 23.22 58.7299 22.97L58.7199 22.98Z" fill="url(#paint102_radial_248_11278)"/>
<path style="mix-blend-mode:screen" fill-rule="evenodd" clip-rule="evenodd" d="M56.5199 17.41C57.2699 18.24 58.0099 19.26 57.9199 20.43C57.9099 20.57 57.8499 20.7 57.8199 20.84C57.7599 20.8 57.6999 20.77 57.6499 20.74C57.5999 20.71 57.5599 20.68 57.5199 20.65C57.3399 20.53 57.1699 20.39 57.0199 20.25C57.0299 19.62 56.9299 18.98 56.7199 18.55C56.6299 19.06 56.5799 19.44 56.6499 19.84C55.8899 18.83 55.7399 17.53 55.6399 16.6C55.8499 16.89 56.1699 17.16 56.5199 17.41Z" fill="url(#paint103_radial_248_11278)"/>
<path style="mix-blend-mode:screen" fill-rule="evenodd" clip-rule="evenodd" d="M57.3699 17.94C56.9799 17.79 56.4899 17.57 56.1099 17.6C55.5099 17.64 55.3199 18.52 55.2899 19C55.2599 19.54 55.3499 20.05 55.4299 20.57C55.2699 19.97 55.1699 19.37 55.1499 18.97C55.1099 18.07 55.6299 17.29 55.6299 16.62C55.9999 17.13 56.7299 17.61 57.3599 17.95L57.3699 17.94Z" fill="url(#paint104_radial_248_11278)"/>
<path fill-rule="evenodd" clip-rule="evenodd" d="M55.6401 16.61C55.7801 18.55 56.2701 19.86 57.4401 20.76C56.4701 20.69 56.0801 20.54 55.3201 19.78L55.5701 20.09C56.1201 20.68 56.7601 20.81 57.5001 20.88C57.5801 20.88 57.6901 20.94 57.9001 21.07C58.4601 21.4 58.8401 21.59 59.1301 21.75C58.1701 22.25 57.5301 22.46 56.4001 22.39C57.4301 22.57 58.1801 22.34 59.0701 21.91C59.1901 21.85 59.3301 21.86 59.4401 21.94C59.4601 21.95 59.4701 21.96 59.4901 21.98C59.9001 22.29 60.1401 22.75 60.5601 23.98C60.4001 23.09 60.1601 22.48 59.8501 22.08C59.7901 22 59.7701 21.9 59.8001 21.8C60.2701 20.46 59.7801 19.71 58.7201 18.76C58.9801 19.06 58.7701 18.82 59.0401 19.12C59.8801 20.03 60.1101 20.73 59.6501 21.87C59.3801 21.62 59.0401 21.47 58.6201 21.27C58.8301 20.2 58.5301 19.44 57.8601 18.59C57.6501 18.32 57.5301 18.21 57.2701 18C57.4801 18.22 57.6401 18.38 57.8201 18.63C58.4401 19.47 58.7201 20.19 58.5101 21.22C58.1401 21.04 57.7201 20.82 57.2601 20.45C55.9901 19.44 55.8101 17.87 55.6301 16.62L55.6401 16.61Z" fill="url(#paint105_linear_248_11278)"/>
<path fill-rule="evenodd" clip-rule="evenodd" d="M60.66 36.3601C61.57 36.4801 63.01 35.5901 63.76 34.4701C64.44 33.4501 65.25 31.8601 65.74 30.9601C64.8 31.4501 62.68 30.6801 61.24 30.8101C60.68 30.8601 60.1 31.1301 59.28 31.9501C59.15 31.9401 58.97 31.9201 58.94 31.9401C58.78 32.0201 58.33 32.3901 58.13 32.8601C57.84 33.5401 57.67 34.5101 57.56 34.8901C57.49 35.1101 57.39 35.3101 57.21 35.5701C57.95 35.5201 59.78 36.2501 60.65 36.3601H60.66Z" fill="url(#paint106_linear_248_11278)"/>
<path style="mix-blend-mode:screen" fill-rule="evenodd" clip-rule="evenodd" d="M64.2999 31.16C63.2799 31.61 62.8999 32.07 62.5299 32.92C62.3199 32.99 62.1099 33.06 61.8899 33.13C62.1699 32.1 62.6599 31.45 63.7299 31.03C63.9699 31.06 64.2099 31.09 64.4299 31.11C64.3899 31.13 64.3499 31.14 64.2999 31.16Z" fill="url(#paint107_radial_248_11278)"/>
<path style="mix-blend-mode:screen" fill-rule="evenodd" clip-rule="evenodd" d="M62.1799 31.18C61.5099 31.75 61.2099 32.49 60.9899 33.31C60.8299 33.36 60.6699 33.41 60.5099 33.47C60.3199 33.54 60.1299 33.61 59.9399 33.68C60.0799 32.56 60.1699 31.49 61.1899 30.81C61.2099 30.81 61.2199 30.81 61.2399 30.81C61.6599 30.77 62.1399 30.81 62.6199 30.87C62.4599 30.96 62.3099 31.06 62.1699 31.17L62.1799 31.18Z" fill="url(#paint108_radial_248_11278)"/>
<path fill-rule="evenodd" clip-rule="evenodd" d="M63.76 34.4701C63.01 35.5901 61.57 36.4701 60.66 36.3601C59.78 36.2501 57.96 35.5201 57.22 35.5701C58.17 34.9001 58.89 34.0601 60.16 33.6001C62.01 32.9401 63.86 32.8701 65.75 30.9601C65.26 31.8601 64.45 33.4501 63.77 34.4701H63.76Z" fill="url(#paint109_linear_248_11278)"/>
<path style="mix-blend-mode:multiply" fill-rule="evenodd" clip-rule="evenodd" d="M58.82 32.26C58.22 32.53 58.47 34.36 58.78 34.69C60.16 36.15 61.61 35.99 63.22 35.14C62.44 35.92 61.39 36.45 60.67 36.36C59.79 36.25 57.97 35.52 57.23 35.57C57.41 35.31 57.51 35.11 57.58 34.89C57.69 34.51 57.86 33.55 58.15 32.86C58.34 32.4 58.79 32.02 58.96 31.94C58.99 31.93 59.17 31.94 59.3 31.95C59.6 31.65 59.87 31.42 60.12 31.25C59.81 31.57 59.73 31.77 59.46 32.16C59.23 32.5 59.08 32.14 58.83 32.26H58.82Z" fill="url(#paint110_radial_248_11278)"/>
<path style="mix-blend-mode:screen" fill-rule="evenodd" clip-rule="evenodd" d="M64.9401 32.47C65.0701 32.09 65.1101 31.66 64.6601 31.44C64.0601 31.15 63.1701 31.18 62.5501 31.15C62.1501 31.13 61.9301 30.82 60.8201 30.9C60.9701 30.85 61.1101 30.83 61.2501 30.81C62.6901 30.69 64.8101 31.45 65.7501 30.96C65.5301 31.36 65.2501 31.9 64.9401 32.46V32.47Z" fill="url(#paint111_radial_248_11278)"/>
<path style="mix-blend-mode:screen" fill-rule="evenodd" clip-rule="evenodd" d="M64.24 33.71C63.6 34.27 62.81 34.75 61.93 34.78C60.89 34.81 60.02 34.01 58.99 34.2C59.52 33.88 59.77 33.73 60.04 33.69C60.58 33.61 61.46 33.91 62.07 33.94C62.95 33.98 63.72 33.66 64.42 33.17C64.49 33.12 64.56 33.07 64.63 33.01C64.5 33.25 64.37 33.48 64.23 33.71H64.24Z" fill="url(#paint112_radial_248_11278)"/>
<path fill-rule="evenodd" clip-rule="evenodd" d="M65.74 30.9601C64.76 31.9101 63.64 32.4301 62.64 32.7701C63.08 31.8801 63.37 31.6501 64.29 31.1601C63.3 31.5301 62.94 31.9101 62.47 32.8301C61.95 33.0001 61.46 33.1201 61.06 33.2201C61.27 32.4801 61.46 32.0201 62.18 31.1701C61.76 31.6201 61.51 31.8501 61.32 32.1801C61.14 32.4901 61.03 32.8301 60.9 33.2701C60.74 33.3101 60.59 33.3501 60.47 33.4001C59.98 33.5601 59.57 33.7301 59.18 33.9501C59.16 33.2601 59.18 33.0301 59.31 32.3801C59.08 32.9901 59.01 33.3901 59.01 34.0501C58.44 34.4001 57.9 34.8701 57.23 35.5701C57.77 35.1501 58.17 34.7901 58.66 34.4801C60.13 35.9301 61.46 35.9501 63.16 34.8801C61.45 35.7301 60.25 35.7501 58.84 34.3601C59.13 34.1901 59.46 34.0301 59.87 33.8701C60.1 33.7801 60.3 33.7201 60.79 33.8101C62.18 34.0601 63.14 34.1301 64.44 33.1701C62.88 34.0801 62.27 33.9401 60.66 33.6201C62.53 33.0501 64.4 32.5801 65.75 30.9701L65.74 30.9601Z" fill="url(#paint113_linear_248_11278)"/>
<path fill-rule="evenodd" clip-rule="evenodd" d="M33.5899 31.75C43.8099 31.75 52.8799 33.76 58.5399 36.86C58.9799 37.1 59.2599 37.47 59.3799 37.95C59.4999 38.43 59.4199 38.89 59.1499 39.31C56.8899 42.73 53.9699 45.68 50.5599 47.95C51.7199 47.16 51.0299 45.97 50.1199 45.37C47.6599 43.74 41.1899 42.58 33.5899 42.58C33.3899 38.84 33.3899 35.23 33.5899 31.74V31.75Z" fill="url(#paint114_radial_248_11278)"/>
<path fill-rule="evenodd" clip-rule="evenodd" d="M33.5899 31.75C23.3699 31.75 14.2999 33.76 8.63988 36.86C8.19988 37.1 7.91988 37.47 7.79988 37.95C7.67988 38.43 7.75988 38.89 8.02988 39.31C10.2899 42.73 13.2099 45.68 16.6199 47.95C15.4599 47.16 16.1499 45.97 17.0599 45.37C19.5199 43.74 25.9899 42.58 33.5899 42.58C33.7899 38.84 33.7899 35.23 33.5899 31.74V31.75Z" fill="url(#paint115_radial_248_11278)"/>
<path fill-rule="evenodd" clip-rule="evenodd" d="M15.5299 43.83C14.6599 44.38 13.9199 45.51 14.7499 46.61C14.9399 46.76 15.1399 46.91 15.3299 47.06C14.8399 46.07 15.5199 45.11 16.2899 44.61C19.0399 42.85 25.7499 41.61 33.5799 41.61V40.62C25.5099 40.62 18.5599 41.94 15.5199 43.83H15.5299ZM8.96991 40.67C8.75991 39.77 9.36991 38.86 10.1699 38.41C15.2499 35.58 23.8499 33.72 33.5899 33.72V32.73C23.6099 32.73 14.7799 34.66 9.40991 37.63C8.72991 38.01 8.17991 38.74 8.15991 39.49C8.42991 39.89 8.69991 40.28 8.97991 40.66L8.96991 40.67Z" fill="url(#paint116_radial_248_11278)"/>
<path opacity="0.75" fill-rule="evenodd" clip-rule="evenodd" d="M33.59 32.6C24.65 32.6 16.63 34.2 11.23 36.73C16.67 34.28 24.67 32.74 33.59 32.74V32.6ZM17.45 42.9C21.01 41.52 26.92 40.62 33.59 40.62V40.52C26.88 40.52 20.96 41.46 17.45 42.9Z" fill="white"/>
<path style="mix-blend-mode:screen" fill-rule="evenodd" clip-rule="evenodd" d="M17.15 45.32C14.17 42.67 11.26 39.3 9.56998 36.37C9.24998 36.53 8.93998 36.69 8.62998 36.86C8.34998 37.01 8.13998 37.22 7.97998 37.47C8.01998 37.6 8.06998 37.72 8.13998 37.84C9.37998 39.95 13.42 44.56 16.15 46.35C16.34 45.97 16.68 45.62 17.05 45.38C17.08 45.36 17.11 45.34 17.14 45.32H17.15Z" fill="url(#paint117_radial_248_11278)"/>
<path fill-rule="evenodd" clip-rule="evenodd" d="M51.6398 43.83C52.5098 44.38 53.2498 45.51 52.4198 46.61C52.2298 46.76 52.0298 46.91 51.8398 47.06C52.3298 46.07 51.6498 45.11 50.8798 44.61C48.1298 42.85 41.4198 41.61 33.5898 41.61V40.62C41.6598 40.62 48.6098 41.94 51.6498 43.83H51.6398ZM58.1998 40.67C58.4098 39.77 57.7998 38.86 57.0098 38.41C51.9298 35.58 43.3298 33.72 33.5898 33.72V32.73C43.5698 32.73 52.3998 34.66 57.7698 37.63C58.4498 38.01 58.9998 38.74 59.0198 39.49C58.7498 39.89 58.4798 40.28 58.1998 40.66V40.67Z" fill="url(#paint118_radial_248_11278)"/>
<path opacity="0.75" fill-rule="evenodd" clip-rule="evenodd" d="M33.5898 32.6C42.5298 32.6 50.5498 34.2 55.9498 36.73C50.5098 34.28 42.5098 32.74 33.5898 32.74V32.6ZM49.7298 42.9C46.1698 41.52 40.2698 40.62 33.5898 40.62V40.52C40.2998 40.52 46.2198 41.46 49.7298 42.9Z" fill="white"/>
<path style="mix-blend-mode:screen" fill-rule="evenodd" clip-rule="evenodd" d="M50.0198 45.32C52.9998 42.67 55.9098 39.3 57.5998 36.37C57.9198 36.53 58.2298 36.69 58.5398 36.86C58.8198 37.01 59.0298 37.22 59.1898 37.47C59.1498 37.6 59.0998 37.72 59.0298 37.84C57.7898 39.95 53.7498 44.56 51.0198 46.35C50.8298 45.97 50.4898 45.62 50.1198 45.38C50.0898 45.36 50.0598 45.34 50.0298 45.32H50.0198Z" fill="url(#paint119_radial_248_11278)"/>
<path d="M34.21 38.6C33.41 38.6 32.7101 38.31 32.1301 37.72C31.5401 37.13 31.25 36.44 31.25 35.64V20.68L29.01 22.08C28.64 22.32 28.22 22.44 27.74 22.44C27.07 22.44 26.4901 22.21 26.0201 21.74C25.5401 21.27 25.3 20.7 25.3 20.03C25.3 19.62 25.41 19.23 25.63 18.86C25.85 18.49 26.1201 18.2 26.4401 17.98L32.78 13.98C33.28 13.68 33.7901 13.52 34.3101 13.52C35.1101 13.52 35.79 13.8 36.34 14.37C36.89 14.93 37.17 15.61 37.17 16.39V35.64C37.17 36.44 36.8801 37.14 36.3101 37.72C35.7401 38.31 35.04 38.6 34.21 38.6Z" fill="#440000"/>
<path d="M34.21 37.7C33.41 37.7 32.7101 37.41 32.1301 36.82C31.5401 36.23 31.25 35.54 31.25 34.74V19.78L29.01 21.18C28.64 21.42 28.22 21.54 27.74 21.54C27.07 21.54 26.4901 21.31 26.0201 20.84C25.5401 20.37 25.3 19.81 25.3 19.13C25.3 18.72 25.41 18.33 25.63 17.96C25.85 17.59 26.1201 17.3 26.4401 17.08L32.78 13.08C33.28 12.78 33.7901 12.62 34.3101 12.62C35.1101 12.62 35.79 12.9 36.34 13.47C36.89 14.03 37.17 14.71 37.17 15.49V34.74C37.17 35.54 36.8801 36.24 36.3101 36.82C35.7401 37.41 35.04 37.7 34.21 37.7Z" fill="url(#paint120_linear_248_11278)"/>
<path fill-rule="evenodd" clip-rule="evenodd" d="M26.7401 17.54C26.4701 17.72 26.2601 17.96 26.1001 18.24C25.9401 18.52 25.8501 18.81 25.8501 19.14C25.8501 19.66 26.0301 20.09 26.4001 20.46C26.7801 20.83 27.2201 21 27.7401 21C28.0901 21 28.4201 20.92 28.7101 20.73L31.7801 18.81V34.74C31.7801 35.41 32.0301 35.96 32.5001 36.44C32.9701 36.91 33.5301 37.16 34.2001 37.16C34.8701 37.16 35.4401 36.93 35.9101 36.44C36.3801 35.96 36.6201 35.41 36.6201 34.74V15.49C36.6201 14.85 36.4001 14.31 35.9501 13.85C35.4901 13.39 34.9501 13.17 34.3101 13.17C33.8601 13.17 33.4501 13.31 33.0701 13.54L26.7401 17.54Z" fill="url(#paint121_linear_248_11278)"/>
<path style="mix-blend-mode:screen" opacity="0.5" fill-rule="evenodd" clip-rule="evenodd" d="M26.7401 17.54C26.4701 17.72 26.2601 17.96 26.1001 18.24C25.9401 18.52 25.8501 18.81 25.8501 19.14C25.8501 19.66 26.0301 20.09 26.4001 20.46C26.7801 20.83 27.2201 21 27.7401 21C28.0901 21 28.4201 20.92 28.7101 20.73L31.7801 18.81V25.2H36.6101V15.49C36.6101 14.85 36.3901 14.31 35.9401 13.85C35.4801 13.39 34.9401 13.17 34.3001 13.17C33.8501 13.17 33.4401 13.31 33.0601 13.54L26.7301 17.54H26.7401Z" fill="url(#paint122_linear_248_11278)"/>
</g>
<defs>
<radialGradient id="paint0_radial_248_11278" cx="0" cy="0" r="1" gradientUnits="userSpaceOnUse" gradientTransform="translate(23.3099 40.32) scale(18.51)">
<stop stop-color="#7D0000"/>
<stop offset="1" stop-color="#FF0000"/>
</radialGradient>
<radialGradient id="paint1_radial_248_11278" cx="0" cy="0" r="1" gradientUnits="userSpaceOnUse" gradientTransform="translate(26.9299 27.93) scale(24.8)">
<stop offset="0.71" stop-color="#990000"/>
<stop offset="0.75" stop-color="#9A0404"/>
<stop offset="0.78" stop-color="#9F1010"/>
<stop offset="0.82" stop-color="#A72424"/>
<stop offset="0.86" stop-color="#B24040"/>
<stop offset="0.89" stop-color="#C16565"/>
<stop offset="0.93" stop-color="#D39292"/>
<stop offset="0.97" stop-color="#E8C6C6"/>
<stop offset="1" stop-color="white"/>
</radialGradient>
<radialGradient id="paint2_radial_248_11278" cx="0" cy="0" r="1" gradientUnits="userSpaceOnUse" gradientTransform="translate(18.0398 43.0101) scale(12.33 12.33)">
<stop stop-color="#E8AA00"/>
<stop offset="1" stop-color="#FFF8B0"/>
</radialGradient>
<radialGradient id="paint3_radial_248_11278" cx="0" cy="0" r="1" gradientUnits="userSpaceOnUse" gradientTransform="translate(43.8601 0.500046) rotate(180) scale(18.51 18.51)">
<stop stop-color="#7D0000"/>
<stop offset="1" stop-color="#FF0000"/>
</radialGradient>
<radialGradient id="paint4_radial_248_11278" cx="0" cy="0" r="1" gradientUnits="userSpaceOnUse" gradientTransform="translate(40.2501 0.500025) rotate(-180) scale(24.8 24.8)">
<stop offset="0.71" stop-color="#990000"/>
<stop offset="0.75" stop-color="#9A0404"/>
<stop offset="0.78" stop-color="#9F1010"/>
<stop offset="0.82" stop-color="#A72424"/>
<stop offset="0.86" stop-color="#B24040"/>
<stop offset="0.89" stop-color="#C16565"/>
<stop offset="0.93" stop-color="#D39292"/>
<stop offset="0.97" stop-color="#E8C6C6"/>
<stop offset="1" stop-color="white"/>
</radialGradient>
<radialGradient id="paint5_radial_248_11278" cx="0" cy="0" r="1" gradientUnits="userSpaceOnUse" gradientTransform="translate(49.1301 0.500082) rotate(-180) scale(12.33 12.33)">
<stop stop-color="#E8AA00"/>
<stop offset="1" stop-color="#FFF8B0"/>
</radialGradient>
<linearGradient id="paint6_linear_248_11278" x1="33.5899" y1="47.83" x2="33.5899" y2="4.92999" gradientUnits="userSpaceOnUse">
<stop stop-color="#ED8200"/>
<stop offset="1" stop-color="#FFAA00"/>
</linearGradient>
<radialGradient id="paint7_radial_248_11278" cx="0" cy="0" r="1" gradientUnits="userSpaceOnUse" gradientTransform="translate(33.73 21.99) scale(40.52 40.52)">
<stop stop-color="white"/>
<stop offset="1" stop-color="#E3A539"/>
</radialGradient>
<linearGradient id="paint8_linear_248_11278" x1="33.5899" y1="49.85" x2="33.5899" y2="2.90997" gradientUnits="userSpaceOnUse">
<stop stop-color="#F0A324"/>
<stop offset="1" stop-color="#995E00"/>
</linearGradient>
<linearGradient id="paint9_linear_248_11278" x1="33.59" y1="49.85" x2="33.59" y2="2.91" gradientUnits="userSpaceOnUse">
<stop stop-color="#B56700"/>
<stop offset="1" stop-color="#FFD97A"/>
</linearGradient>
<linearGradient id="paint10_linear_248_11278" x1="33.5899" y1="49.85" x2="33.5899" y2="26.38" gradientUnits="userSpaceOnUse">
<stop stop-color="#D1A14D"/>
<stop offset="1"/>
</linearGradient>
<linearGradient id="paint11_linear_248_11278" x1="33.59" y1="26.38" x2="33.59" y2="0" gradientUnits="userSpaceOnUse">
<stop/>
<stop offset="1" stop-color="#D1A14D"/>
</linearGradient>
<radialGradient id="paint12_radial_248_11278" cx="0" cy="0" r="1" gradientUnits="userSpaceOnUse" gradientTransform="translate(33.59 46.95) scale(24.62 24.62)">
<stop stop-color="#FFD58C"/>
<stop offset="1" stop-color="#D1A14D"/>
</radialGradient>
<radialGradient id="paint13_radial_248_11278" cx="0" cy="0" r="1" gradientUnits="userSpaceOnUse" gradientTransform="translate(33.59 13.36) scale(22.27 22.27)">
<stop stop-color="white"/>
<stop offset="0.11" stop-color="#F7E7CA"/>
<stop offset="0.21" stop-color="#F1D39E"/>
<stop offset="0.32" stop-color="#ECC279"/>
<stop offset="0.43" stop-color="#E8B55D"/>
<stop offset="0.54" stop-color="#E5AC49"/>
<stop offset="0.64" stop-color="#E3A63D"/>
<stop offset="0.75" stop-color="#E3A539"/>
</radialGradient>
<radialGradient id="paint14_radial_248_11278" cx="0" cy="0" r="1" gradientUnits="userSpaceOnUse" gradientTransform="translate(35.1399 -11.36) scale(43.92 43.92)">
<stop stop-color="#FFEF8F"/>
<stop offset="1"/>
</radialGradient>
<radialGradient id="paint15_radial_248_11278" cx="0" cy="0" r="1" gradientUnits="userSpaceOnUse" gradientTransform="translate(33.38 -9.66003) scale(29.17 29.17)">
<stop stop-color="#FFEF8F"/>
<stop offset="1"/>
</radialGradient>
<linearGradient id="paint16_linear_248_11278" x1="11.9601" y1="42.15" x2="11.9601" y2="13.13" gradientUnits="userSpaceOnUse">
<stop stop-color="#B56700"/>
<stop offset="1" stop-color="#FFD97A"/>
</linearGradient>
<radialGradient id="paint17_radial_248_11278" cx="0" cy="0" r="1" gradientUnits="userSpaceOnUse" gradientTransform="translate(5.00994 15.75) scale(28.73 28.73)">
<stop stop-color="#FFEF8F"/>
<stop offset="1"/>
</radialGradient>
<linearGradient id="paint18_linear_248_11278" x1="3.26999" y1="28.75" x2="3.26999" y2="21.26" gradientUnits="userSpaceOnUse">
<stop stop-color="#EB9E21"/>
<stop offset="1" stop-color="#FFDB59"/>
</linearGradient>
<linearGradient id="paint19_linear_248_11278" x1="0" y1="25.01" x2="6.28" y2="25.01" gradientUnits="userSpaceOnUse">
<stop stop-color="#FFB438"/>
<stop offset="1" stop-color="#C77A00"/>
</linearGradient>
<radialGradient id="paint20_radial_248_11278" cx="0" cy="0" r="1" gradientUnits="userSpaceOnUse" gradientTransform="translate(-0.72001 21.31) scale(4.53)">
<stop stop-color="#FFEF8F"/>
<stop offset="1"/>
</radialGradient>
<radialGradient id="paint21_radial_248_11278" cx="0" cy="0" r="1" gradientUnits="userSpaceOnUse" gradientTransform="translate(2.25011 21.66) scale(4.29)">
<stop stop-color="#FFEF8F"/>
<stop offset="1"/>
</radialGradient>
<radialGradient id="paint22_radial_248_11278" cx="0" cy="0" r="1" gradientUnits="userSpaceOnUse" gradientTransform="translate(3.72992 22.6601) scale(4.47 4.47)">
<stop stop-color="#FFEF8F"/>
<stop offset="1"/>
</radialGradient>
<radialGradient id="paint23_radial_248_11278" cx="0" cy="0" r="1" gradientUnits="userSpaceOnUse" gradientTransform="translate(2.45997 22.58) scale(10.56)">
<stop offset="0.44" stop-color="white"/>
<stop offset="1" stop-color="#CFA04D"/>
</radialGradient>
<radialGradient id="paint24_radial_248_11278" cx="0" cy="0" r="1" gradientUnits="userSpaceOnUse" gradientTransform="translate(1.01003 25) scale(3.91 3.91)">
<stop stop-color="#FFEF8F"/>
<stop offset="1"/>
</radialGradient>
<linearGradient id="paint25_linear_248_11278" x1="6.53" y1="29.1" x2="-0.32" y2="21.68" gradientUnits="userSpaceOnUse">
<stop stop-color="#F7A334"/>
<stop offset="1" stop-color="#FFF39C"/>
</linearGradient>
<linearGradient id="paint26_linear_248_11278" x1="10.11" y1="31.6501" x2="10.11" y2="23.3001" gradientUnits="userSpaceOnUse">
<stop stop-color="#EB9E21"/>
<stop offset="1" stop-color="#FFDB59"/>
</linearGradient>
<linearGradient id="paint27_linear_248_11278" x1="8.93994" y1="27.48" x2="12.6999" y2="27.48" gradientUnits="userSpaceOnUse">
<stop stop-color="#FFB438"/>
<stop offset="1" stop-color="#C77A00"/>
</linearGradient>
<radialGradient id="paint28_radial_248_11278" cx="0" cy="0" r="1" gradientUnits="userSpaceOnUse" gradientTransform="translate(10.45 27.62) scale(4.49)">
<stop offset="0.44" stop-color="white"/>
<stop offset="1" stop-color="#CFA04D"/>
</radialGradient>
<radialGradient id="paint29_radial_248_11278" cx="0" cy="0" r="1" gradientUnits="userSpaceOnUse" gradientTransform="translate(10.11 24.16) scale(3.55 3.55)">
<stop stop-color="#FFEF8F"/>
<stop offset="1"/>
</radialGradient>
<radialGradient id="paint30_radial_248_11278" cx="0" cy="0" r="1" gradientUnits="userSpaceOnUse" gradientTransform="translate(12.41 24.9901) scale(5.27)">
<stop stop-color="#FFEF8F"/>
<stop offset="1"/>
</radialGradient>
<radialGradient id="paint31_radial_248_11278" cx="0" cy="0" r="1" gradientUnits="userSpaceOnUse" gradientTransform="translate(12.45 21.89) scale(5.18 5.18)">
<stop stop-color="#FFEF8F"/>
<stop offset="1"/>
</radialGradient>
<radialGradient id="paint32_radial_248_11278" cx="0" cy="0" r="1" gradientUnits="userSpaceOnUse" gradientTransform="translate(9.12003 26.46) scale(3.64)">
<stop stop-color="#FFEF8F"/>
<stop offset="1"/>
</radialGradient>
<linearGradient id="paint33_linear_248_11278" x1="10.6499" y1="31.85" x2="10.3199" y2="22.74" gradientUnits="userSpaceOnUse">
<stop stop-color="#F7A334"/>
<stop offset="1" stop-color="#FFF39C"/>
</linearGradient>
<linearGradient id="paint34_linear_248_11278" x1="4.20003" y1="20.32" x2="4.20003" y2="12.61" gradientUnits="userSpaceOnUse">
<stop stop-color="#EB9E21"/>
<stop offset="1" stop-color="#FFDB59"/>
</linearGradient>
<radialGradient id="paint35_radial_248_11278" cx="0" cy="0" r="1" gradientUnits="userSpaceOnUse" gradientTransform="translate(2.07998 13.57) scale(4.73)">
<stop stop-color="#FFEF8F"/>
<stop offset="1"/>
</radialGradient>
<linearGradient id="paint36_linear_248_11278" x1="3.10007" y1="16.47" x2="6.58007" y2="16.47" gradientUnits="userSpaceOnUse">
<stop stop-color="#FFB438"/>
<stop offset="1" stop-color="#C77A00"/>
</linearGradient>
<radialGradient id="paint37_radial_248_11278" cx="0" cy="0" r="1" gradientUnits="userSpaceOnUse" gradientTransform="translate(3.41006 16.66) scale(4.42)">
<stop offset="0.44" stop-color="white"/>
<stop offset="1" stop-color="#CFA04D"/>
</radialGradient>
<radialGradient id="paint38_radial_248_11278" cx="0" cy="0" r="1" gradientUnits="userSpaceOnUse" gradientTransform="translate(3.66988 13.6801) scale(4.39)">
<stop stop-color="#FFEF8F"/>
<stop offset="1"/>
</radialGradient>
<linearGradient id="paint39_linear_248_11278" x1="5.64988" y1="21.76" x2="2.68988" y2="12.89" gradientUnits="userSpaceOnUse">
<stop stop-color="#F2AE55"/>
<stop offset="1" stop-color="#FFEF7A"/>
</linearGradient>
<radialGradient id="paint40_radial_248_11278" cx="0" cy="0" r="1" gradientUnits="userSpaceOnUse" gradientTransform="translate(4.9701 14.28) scale(3.23 3.23)">
<stop stop-color="#FFEF8F"/>
<stop offset="1"/>
</radialGradient>
<linearGradient id="paint41_linear_248_11278" x1="9.74989" y1="15.17" x2="9.74989" y2="8.60004" gradientUnits="userSpaceOnUse">
<stop stop-color="#EB9E21"/>
<stop offset="1" stop-color="#FFDB59"/>
</linearGradient>
<linearGradient id="paint42_linear_248_11278" x1="6.75009" y1="11.84" x2="12.7401" y2="11.84" gradientUnits="userSpaceOnUse">
<stop stop-color="#FFB438"/>
<stop offset="1" stop-color="#C77A00"/>
</linearGradient>
<radialGradient id="paint43_radial_248_11278" cx="0" cy="0" r="1" gradientUnits="userSpaceOnUse" gradientTransform="translate(9.15003 12.89) scale(2.34)">
<stop offset="0.44" stop-color="white"/>
<stop offset="1" stop-color="#CFA04D"/>
</radialGradient>
<radialGradient id="paint44_radial_248_11278" cx="0" cy="0" r="1" gradientUnits="userSpaceOnUse" gradientTransform="translate(10.5901 10.6) scale(2.08)">
<stop stop-color="#FFEF8F"/>
<stop offset="1"/>
</radialGradient>
<radialGradient id="paint45_radial_248_11278" cx="0" cy="0" r="1" gradientUnits="userSpaceOnUse" gradientTransform="translate(5.76008 14.0201) scale(3.6)">
<stop stop-color="#FFEF8F"/>
<stop offset="1"/>
</radialGradient>
<radialGradient id="paint46_radial_248_11278" cx="0" cy="0" r="1" gradientUnits="userSpaceOnUse" gradientTransform="translate(11.53 10.1) scale(4.92 4.92)">
<stop stop-color="#FFEF8F"/>
<stop offset="1"/>
</radialGradient>
<radialGradient id="paint47_radial_248_11278" cx="0" cy="0" r="1" gradientUnits="userSpaceOnUse" gradientTransform="translate(11.5001 8.07005) scale(3.65 3.65)">
<stop stop-color="#FFEF8F"/>
<stop offset="1"/>
</radialGradient>
<radialGradient id="paint48_radial_248_11278" cx="0" cy="0" r="1" gradientUnits="userSpaceOnUse" gradientTransform="translate(10.8 11.68) scale(4.11 4.11)">
<stop stop-color="#FFEF8F"/>
<stop offset="1"/>
</radialGradient>
<linearGradient id="paint49_linear_248_11278" x1="7.21008" y1="14.67" x2="12.3401" y2="8.38004" gradientUnits="userSpaceOnUse">
<stop stop-color="#FFCB5A"/>
<stop offset="1" stop-color="#FFEF7A"/>
</linearGradient>
<linearGradient id="paint50_linear_248_11278" x1="9.15991" y1="23.96" x2="9.15991" y2="16.61" gradientUnits="userSpaceOnUse">
<stop stop-color="#EB9E21"/>
<stop offset="1" stop-color="#FFDB59"/>
</linearGradient>
<radialGradient id="paint51_radial_248_11278" cx="0" cy="0" r="1" gradientUnits="userSpaceOnUse" gradientTransform="translate(12.4799 21.88) scale(4.47)">
<stop stop-color="#FFEF8F"/>
<stop offset="1"/>
</radialGradient>
<linearGradient id="paint52_linear_248_11278" x1="5.73991" y1="23.28" x2="11.6199" y2="16.38" gradientUnits="userSpaceOnUse">
<stop stop-color="#FFB438"/>
<stop offset="1" stop-color="#C77A00"/>
</linearGradient>
<radialGradient id="paint53_radial_248_11278" cx="0" cy="0" r="1" gradientUnits="userSpaceOnUse" gradientTransform="translate(8.27991 21.24) scale(2.38)">
<stop offset="0.44" stop-color="white"/>
<stop offset="1" stop-color="#CFA04D"/>
</radialGradient>
<radialGradient id="paint54_radial_248_11278" cx="0" cy="0" r="1" gradientUnits="userSpaceOnUse" gradientTransform="translate(9.03989 15.6) scale(5.34)">
<stop stop-color="#FFEF8F"/>
<stop offset="1"/>
</radialGradient>
<radialGradient id="paint55_radial_248_11278" cx="0" cy="0" r="1" gradientUnits="userSpaceOnUse" gradientTransform="translate(10.9 16.33) scale(3.71 3.71)">
<stop stop-color="#FFEF8F"/>
<stop offset="1"/>
</radialGradient>
<linearGradient id="paint56_linear_248_11278" x1="7.06011" y1="24.19" x2="11.8001" y2="17.1" gradientUnits="userSpaceOnUse">
<stop stop-color="#F28F0F"/>
<stop offset="1" stop-color="#FFEF7A"/>
</linearGradient>
<linearGradient id="paint57_linear_248_11278" x1="5.68993" y1="36.3701" x2="5.68993" y2="30.8001" gradientUnits="userSpaceOnUse">
<stop stop-color="#EB9E21"/>
<stop offset="1" stop-color="#FFDB59"/>
</linearGradient>
<radialGradient id="paint58_radial_248_11278" cx="0" cy="0" r="1" gradientUnits="userSpaceOnUse" gradientTransform="translate(3.41999 30.49) scale(3.09)">
<stop stop-color="#FFEF8F"/>
<stop offset="1"/>
</radialGradient>
<radialGradient id="paint59_radial_248_11278" cx="0" cy="0" r="1" gradientUnits="userSpaceOnUse" gradientTransform="translate(5.30005 30.53) scale(3.1)">
<stop stop-color="#FFEF8F"/>
<stop offset="1"/>
</radialGradient>
<linearGradient id="paint60_linear_248_11278" x1="1.42992" y1="33.6701" x2="9.94992" y2="33.6701" gradientUnits="userSpaceOnUse">
<stop stop-color="#FFB438"/>
<stop offset="1" stop-color="#C77A00"/>
</linearGradient>
<radialGradient id="paint61_radial_248_11278" cx="0" cy="0" r="1" gradientUnits="userSpaceOnUse" gradientTransform="translate(6.06996 32.65) scale(5.28)">
<stop offset="0.44" stop-color="white"/>
<stop offset="1" stop-color="#CFA04D"/>
</radialGradient>
<radialGradient id="paint62_radial_248_11278" cx="0" cy="0" r="1" gradientUnits="userSpaceOnUse" gradientTransform="translate(1.81992 29.28) scale(4.55 4.55)">
<stop stop-color="#FFEF8F"/>
<stop offset="1"/>
</radialGradient>
<radialGradient id="paint63_radial_248_11278" cx="0" cy="0" r="1" gradientUnits="userSpaceOnUse" gradientTransform="translate(2.87004 31.38) scale(4.91 4.91)">
<stop stop-color="#FFEF8F"/>
<stop offset="1"/>
</radialGradient>
<linearGradient id="paint64_linear_248_11278" x1="9.78992" y1="35.7301" x2="1.19992" y2="31.0501" gradientUnits="userSpaceOnUse">
<stop stop-color="#D18A2C"/>
<stop offset="1" stop-color="#FFF39C"/>
</linearGradient>
<linearGradient id="paint65_linear_248_11278" x1="55.21" y1="42.15" x2="55.21" y2="13.13" gradientUnits="userSpaceOnUse">
<stop stop-color="#B56700"/>
<stop offset="1" stop-color="#FFD97A"/>
</linearGradient>
<radialGradient id="paint66_radial_248_11278" cx="0" cy="0" r="1" gradientUnits="userSpaceOnUse" gradientTransform="translate(62.16 15.75) rotate(-180) scale(28.73 28.73)">
<stop stop-color="#FFEF8F"/>
<stop offset="1"/>
</radialGradient>
<linearGradient id="paint67_linear_248_11278" x1="63.9" y1="28.75" x2="63.9" y2="21.26" gradientUnits="userSpaceOnUse">
<stop stop-color="#EB9E21"/>
<stop offset="1" stop-color="#FFDB59"/>
</linearGradient>
<linearGradient id="paint68_linear_248_11278" x1="67.1699" y1="1.07707e-05" x2="60.8899" y2="1.07707e-05" gradientUnits="userSpaceOnUse">
<stop stop-color="#FFB438"/>
<stop offset="1" stop-color="#C77A00"/>
</linearGradient>
<radialGradient id="paint69_radial_248_11278" cx="0" cy="0" r="1" gradientUnits="userSpaceOnUse" gradientTransform="translate(67.89 21.31) rotate(180) scale(4.53 4.53)">
<stop stop-color="#FFEF8F"/>
<stop offset="1"/>
</radialGradient>
<radialGradient id="paint70_radial_248_11278" cx="0" cy="0" r="1" gradientUnits="userSpaceOnUse" gradientTransform="translate(64.9199 21.66) rotate(180) scale(4.28999 4.29)">
<stop stop-color="#FFEF8F"/>
<stop offset="1"/>
</radialGradient>
<radialGradient id="paint71_radial_248_11278" cx="0" cy="0" r="1" gradientUnits="userSpaceOnUse" gradientTransform="translate(63.4398 22.6601) rotate(180) scale(4.47)">
<stop stop-color="#FFEF8F"/>
<stop offset="1"/>
</radialGradient>
<radialGradient id="paint72_radial_248_11278" cx="0" cy="0" r="1" gradientUnits="userSpaceOnUse" gradientTransform="translate(64.71 0.500023) rotate(180) scale(0.5)">
<stop offset="0.44" stop-color="white"/>
<stop offset="1" stop-color="#CFA04D"/>
</radialGradient>
<radialGradient id="paint73_radial_248_11278" cx="0" cy="0" r="1" gradientUnits="userSpaceOnUse" gradientTransform="translate(66.1599 0.50004) rotate(-180) scale(3.91)">
<stop stop-color="#FFEF8F"/>
<stop offset="1"/>
</radialGradient>
<linearGradient id="paint74_linear_248_11278" x1="60.6399" y1="29.1" x2="67.4899" y2="21.68" gradientUnits="userSpaceOnUse">
<stop stop-color="#F7A334"/>
<stop offset="1" stop-color="#FFF39C"/>
</linearGradient>
<linearGradient id="paint75_linear_248_11278" x1="57.06" y1="31.6501" x2="57.06" y2="23.3001" gradientUnits="userSpaceOnUse">
<stop stop-color="#EB9E21"/>
<stop offset="1" stop-color="#FFDB59"/>
</linearGradient>
<linearGradient id="paint76_linear_248_11278" x1="58.23" y1="27.48" x2="54.47" y2="27.48" gradientUnits="userSpaceOnUse">
<stop stop-color="#FFB438"/>
<stop offset="1" stop-color="#C77A00"/>
</linearGradient>
<radialGradient id="paint77_radial_248_11278" cx="0" cy="0" r="1" gradientUnits="userSpaceOnUse" gradientTransform="translate(56.72 27.62) rotate(180) scale(4.49)">
<stop offset="0.44" stop-color="white"/>
<stop offset="1" stop-color="#CFA04D"/>
</radialGradient>
<radialGradient id="paint78_radial_248_11278" cx="0" cy="0" r="1" gradientUnits="userSpaceOnUse" gradientTransform="translate(57.06 24.16) rotate(-180) scale(3.55 3.55)">
<stop stop-color="#FFEF8F"/>
<stop offset="1"/>
</radialGradient>
<radialGradient id="paint79_radial_248_11278" cx="0" cy="0" r="1" gradientUnits="userSpaceOnUse" gradientTransform="translate(54.76 24.9901) rotate(180) scale(5.27 5.27)">
<stop stop-color="#FFEF8F"/>
<stop offset="1"/>
</radialGradient>
<radialGradient id="paint80_radial_248_11278" cx="0" cy="0" r="1" gradientUnits="userSpaceOnUse" gradientTransform="translate(54.72 21.89) rotate(180) scale(5.18 5.18)">
<stop stop-color="#FFEF8F"/>
<stop offset="1"/>
</radialGradient>
<radialGradient id="paint81_radial_248_11278" cx="0" cy="0" r="1" gradientUnits="userSpaceOnUse" gradientTransform="translate(58.0498 26.46) rotate(180) scale(3.63999 3.64)">
<stop stop-color="#FFEF8F"/>
<stop offset="1"/>
</radialGradient>
<linearGradient id="paint82_linear_248_11278" x1="56.5199" y1="31.85" x2="56.8499" y2="22.74" gradientUnits="userSpaceOnUse">
<stop stop-color="#F7A334"/>
<stop offset="1" stop-color="#FFF39C"/>
</linearGradient>
<linearGradient id="paint83_linear_248_11278" x1="62.9701" y1="20.32" x2="62.9701" y2="12.61" gradientUnits="userSpaceOnUse">
<stop stop-color="#EB9E21"/>
<stop offset="1" stop-color="#FFDB59"/>
</linearGradient>
<radialGradient id="paint84_radial_248_11278" cx="0" cy="0" r="1" gradientUnits="userSpaceOnUse" gradientTransform="translate(65.0899 13.57) rotate(180) scale(4.73001 4.73)">
<stop stop-color="#FFEF8F"/>
<stop offset="1"/>
</radialGradient>
<linearGradient id="paint85_linear_248_11278" x1="64.0701" y1="16.47" x2="60.5901" y2="16.47" gradientUnits="userSpaceOnUse">
<stop stop-color="#FFB438"/>
<stop offset="1" stop-color="#C77A00"/>
</linearGradient>
<radialGradient id="paint86_radial_248_11278" cx="0" cy="0" r="1" gradientUnits="userSpaceOnUse" gradientTransform="translate(63.7601 16.66) rotate(180) scale(4.42)">
<stop offset="0.44" stop-color="white"/>
<stop offset="1" stop-color="#CFA04D"/>
</radialGradient>
<radialGradient id="paint87_radial_248_11278" cx="0" cy="0" r="1" gradientUnits="userSpaceOnUse" gradientTransform="translate(63.4999 13.6801) rotate(180) scale(4.39 4.39)">
<stop stop-color="#FFEF8F"/>
<stop offset="1"/>
</radialGradient>
<linearGradient id="paint88_linear_248_11278" x1="61.5199" y1="21.76" x2="64.4799" y2="12.89" gradientUnits="userSpaceOnUse">
<stop stop-color="#F2AE55"/>
<stop offset="1" stop-color="#FFEF7A"/>
</linearGradient>
<radialGradient id="paint89_radial_248_11278" cx="0" cy="0" r="1" gradientUnits="userSpaceOnUse" gradientTransform="translate(62.1999 14.28) rotate(180) scale(3.23 3.23)">
<stop stop-color="#FFEF8F"/>
<stop offset="1"/>
</radialGradient>
<linearGradient id="paint90_linear_248_11278" x1="57.4199" y1="15.17" x2="57.4199" y2="8.60004" gradientUnits="userSpaceOnUse">
<stop stop-color="#EB9E21"/>
<stop offset="1" stop-color="#FFDB59"/>
</linearGradient>
<linearGradient id="paint91_linear_248_11278" x1="60.4199" y1="11.84" x2="54.4299" y2="11.84" gradientUnits="userSpaceOnUse">
<stop stop-color="#FFB438"/>
<stop offset="1" stop-color="#C77A00"/>
</linearGradient>
<radialGradient id="paint92_radial_248_11278" cx="0" cy="0" r="1" gradientUnits="userSpaceOnUse" gradientTransform="translate(58.0199 12.89) rotate(180) scale(2.34)">
<stop offset="0.44" stop-color="white"/>
<stop offset="1" stop-color="#CFA04D"/>
</radialGradient>
<radialGradient id="paint93_radial_248_11278" cx="0" cy="0" r="1" gradientUnits="userSpaceOnUse" gradientTransform="translate(56.5799 10.6) rotate(180) scale(2.08)">
<stop stop-color="#FFEF8F"/>
<stop offset="1"/>
</radialGradient>
<radialGradient id="paint94_radial_248_11278" cx="0" cy="0" r="1" gradientUnits="userSpaceOnUse" gradientTransform="translate(61.4099 14.0201) rotate(180) scale(3.60001 3.6)">
<stop stop-color="#FFEF8F"/>
<stop offset="1"/>
</radialGradient>
<radialGradient id="paint95_radial_248_11278" cx="0" cy="0" r="1" gradientUnits="userSpaceOnUse" gradientTransform="translate(55.64 10.1) rotate(180) scale(4.92 4.92)">
<stop stop-color="#FFEF8F"/>
<stop offset="1"/>
</radialGradient>
<radialGradient id="paint96_radial_248_11278" cx="0" cy="0" r="1" gradientUnits="userSpaceOnUse" gradientTransform="translate(55.6699 8.07005) rotate(180) scale(3.65 3.65)">
<stop stop-color="#FFEF8F"/>
<stop offset="1"/>
</radialGradient>
<radialGradient id="paint97_radial_248_11278" cx="0" cy="0" r="1" gradientUnits="userSpaceOnUse" gradientTransform="translate(56.37 11.68) rotate(180) scale(4.11 4.11)">
<stop stop-color="#FFEF8F"/>
<stop offset="1"/>
</radialGradient>
<linearGradient id="paint98_linear_248_11278" x1="59.9599" y1="14.67" x2="54.8299" y2="8.38004" gradientUnits="userSpaceOnUse">
<stop stop-color="#FFCB5A"/>
<stop offset="1" stop-color="#FFEF7A"/>
</linearGradient>
<linearGradient id="paint99_linear_248_11278" x1="58.0099" y1="23.96" x2="58.0099" y2="16.61" gradientUnits="userSpaceOnUse">
<stop stop-color="#EB9E21"/>
<stop offset="1" stop-color="#FFDB59"/>
</linearGradient>
<radialGradient id="paint100_radial_248_11278" cx="0" cy="0" r="1" gradientUnits="userSpaceOnUse" gradientTransform="translate(54.69 21.88) rotate(180) scale(4.47 4.47)">
<stop stop-color="#FFEF8F"/>
<stop offset="1"/>
</radialGradient>
<linearGradient id="paint101_linear_248_11278" x1="61.4299" y1="23.28" x2="55.5499" y2="16.38" gradientUnits="userSpaceOnUse">
<stop stop-color="#FFB438"/>
<stop offset="1" stop-color="#C77A00"/>
</linearGradient>
<radialGradient id="paint102_radial_248_11278" cx="0" cy="0" r="1" gradientUnits="userSpaceOnUse" gradientTransform="translate(58.8899 21.24) rotate(180) scale(2.38 2.38)">
<stop offset="0.44" stop-color="white"/>
<stop offset="1" stop-color="#CFA04D"/>
</radialGradient>
<radialGradient id="paint103_radial_248_11278" cx="0" cy="0" r="1" gradientUnits="userSpaceOnUse" gradientTransform="translate(58.1299 15.6) rotate(180) scale(5.34 5.34)">
<stop stop-color="#FFEF8F"/>
<stop offset="1"/>
</radialGradient>
<radialGradient id="paint104_radial_248_11278" cx="0" cy="0" r="1" gradientUnits="userSpaceOnUse" gradientTransform="translate(56.2699 16.33) rotate(180) scale(3.71 3.71)">
<stop stop-color="#FFEF8F"/>
<stop offset="1"/>
</radialGradient>
<linearGradient id="paint105_linear_248_11278" x1="60.1101" y1="24.19" x2="55.3701" y2="17.1" gradientUnits="userSpaceOnUse">
<stop stop-color="#F28F0F"/>
<stop offset="1" stop-color="#FFEF7A"/>
</linearGradient>
<linearGradient id="paint106_linear_248_11278" x1="61.48" y1="36.3701" x2="61.48" y2="30.8001" gradientUnits="userSpaceOnUse">
<stop stop-color="#EB9E21"/>
<stop offset="1" stop-color="#FFDB59"/>
</linearGradient>
<radialGradient id="paint107_radial_248_11278" cx="0" cy="0" r="1" gradientUnits="userSpaceOnUse" gradientTransform="translate(63.7499 30.49) rotate(180) scale(3.09)">
<stop stop-color="#FFEF8F"/>
<stop offset="1"/>
</radialGradient>
<radialGradient id="paint108_radial_248_11278" cx="0" cy="0" r="1" gradientUnits="userSpaceOnUse" gradientTransform="translate(61.8699 30.53) rotate(180) scale(3.1)">
<stop stop-color="#FFEF8F"/>
<stop offset="1"/>
</radialGradient>
<linearGradient id="paint109_linear_248_11278" x1="65.74" y1="33.6701" x2="57.22" y2="33.6701" gradientUnits="userSpaceOnUse">
<stop stop-color="#FFB438"/>
<stop offset="1" stop-color="#C77A00"/>
</linearGradient>
<radialGradient id="paint110_radial_248_11278" cx="0" cy="0" r="1" gradientUnits="userSpaceOnUse" gradientTransform="translate(61.1 32.65) rotate(180) scale(5.28)">
<stop offset="0.44" stop-color="white"/>
<stop offset="1" stop-color="#CFA04D"/>
</radialGradient>
<radialGradient id="paint111_radial_248_11278" cx="0" cy="0" r="1" gradientUnits="userSpaceOnUse" gradientTransform="translate(65.3501 29.28) rotate(180) scale(4.55 4.55)">
<stop stop-color="#FFEF8F"/>
<stop offset="1"/>
</radialGradient>
<radialGradient id="paint112_radial_248_11278" cx="0" cy="0" r="1" gradientUnits="userSpaceOnUse" gradientTransform="translate(64.3 31.38) rotate(180) scale(4.91 4.91)">
<stop stop-color="#FFEF8F"/>
<stop offset="1"/>
</radialGradient>
<linearGradient id="paint113_linear_248_11278" x1="57.38" y1="35.7301" x2="65.97" y2="31.0501" gradientUnits="userSpaceOnUse">
<stop stop-color="#D18A2C"/>
<stop offset="1" stop-color="#FFF39C"/>
</linearGradient>
<radialGradient id="paint114_radial_248_11278" cx="0" cy="0" r="1" gradientUnits="userSpaceOnUse" gradientTransform="translate(3.82994 -4.69001) rotate(180) scale(71.19 71.19)">
<stop stop-color="#ED3B00"/>
<stop offset="0.77" stop-color="#D90000"/>
<stop offset="0.95" stop-color="#FF2632"/>
<stop offset="0.96" stop-color="#FA2430"/>
<stop offset="0.97" stop-color="#EE212B"/>
<stop offset="0.98" stop-color="#D81A23"/>
<stop offset="0.99" stop-color="#950709"/>
<stop offset="1" stop-color="#7D0000"/>
</radialGradient>
<radialGradient id="paint115_radial_248_11278" cx="0" cy="0" r="1" gradientUnits="userSpaceOnUse" gradientTransform="translate(63.3499 0.499984) scale(71.19 71.19)">
<stop stop-color="#ED3B00"/>
<stop offset="0.77" stop-color="#D90000"/>
<stop offset="0.95" stop-color="#FF2632"/>
<stop offset="0.96" stop-color="#FA2430"/>
<stop offset="0.97" stop-color="#EE212B"/>
<stop offset="0.98" stop-color="#D81A23"/>
<stop offset="0.99" stop-color="#950709"/>
<stop offset="1" stop-color="#7D0000"/>
</radialGradient>
<radialGradient id="paint116_radial_248_11278" cx="0" cy="0" r="1" gradientUnits="userSpaceOnUse" gradientTransform="translate(59.6499 -0.490022) scale(65.31 65.31)">
<stop stop-color="#FFEA73"/>
<stop offset="0.35" stop-color="#FFE971"/>
<stop offset="0.47" stop-color="#FFE86A"/>
<stop offset="0.56" stop-color="#FFE65E"/>
<stop offset="0.63" stop-color="#FFE44D"/>
<stop offset="0.69" stop-color="#FFE137"/>
<stop offset="0.75" stop-color="#FFDD1D"/>
<stop offset="0.77" stop-color="#FFDB0D"/>
<stop offset="0.94" stop-color="#FFF6AB"/>
<stop offset="0.95" stop-color="#FDF2A6"/>
<stop offset="0.96" stop-color="#F9E99A"/>
<stop offset="0.97" stop-color="#F2DA84"/>
<stop offset="0.98" stop-color="#E8C467"/>
<stop offset="0.99" stop-color="#DCA941"/>
<stop offset="1" stop-color="#C77A00"/>
</radialGradient>
<radialGradient id="paint117_radial_248_11278" cx="0" cy="0" r="1" gradientUnits="userSpaceOnUse" gradientTransform="translate(7.72998 34.97) scale(19.64)">
<stop stop-color="#FF8F8F"/>
<stop offset="1"/>
</radialGradient>
<radialGradient id="paint118_radial_248_11278" cx="0" cy="0" r="1" gradientUnits="userSpaceOnUse" gradientTransform="translate(7.51984 0.499975) rotate(180) scale(65.31 65.31)">
<stop stop-color="#FFEA73"/>
<stop offset="0.35" stop-color="#FFE971"/>
<stop offset="0.47" stop-color="#FFE86A"/>
<stop offset="0.56" stop-color="#FFE65E"/>
<stop offset="0.63" stop-color="#FFE44D"/>
<stop offset="0.69" stop-color="#FFE137"/>
<stop offset="0.75" stop-color="#FFDD1D"/>
<stop offset="0.77" stop-color="#FFDB0D"/>
<stop offset="0.94" stop-color="#FFF6AB"/>
<stop offset="0.95" stop-color="#FDF2A6"/>
<stop offset="0.96" stop-color="#F9E99A"/>
<stop offset="0.97" stop-color="#F2DA84"/>
<stop offset="0.98" stop-color="#E8C467"/>
<stop offset="0.99" stop-color="#DCA941"/>
<stop offset="1" stop-color="#C77A00"/>
</radialGradient>
<radialGradient id="paint119_radial_248_11278" cx="0" cy="0" r="1" gradientUnits="userSpaceOnUse" gradientTransform="translate(59.4498 0.499997) rotate(180) scale(19.64 19.64)">
<stop stop-color="#FF8F8F"/>
<stop offset="1"/>
</radialGradient>
<linearGradient id="paint120_linear_248_11278" x1="31.24" y1="37.7" x2="31.24" y2="12.63" gradientUnits="userSpaceOnUse">
<stop stop-color="#7A0A00"/>
<stop offset="0.71" stop-color="#D90000"/>
<stop offset="0.82" stop-color="#EB1F0B"/>
<stop offset="0.93" stop-color="#F93813"/>
<stop offset="1" stop-color="#FF4117"/>
</linearGradient>
<linearGradient id="paint121_linear_248_11278" x1="31.2401" y1="37.16" x2="31.2401" y2="13.17" gradientUnits="userSpaceOnUse">
<stop stop-color="#FF6000"/>
<stop offset="0.41" stop-color="#FFB812"/>
<stop offset="1" stop-color="#FFF2B0"/>
</linearGradient>
<linearGradient id="paint122_linear_248_11278" x1="31.2401" y1="25.2" x2="31.2401" y2="13.17" gradientUnits="userSpaceOnUse">
<stop stop-color="#7A200B"/>
<stop offset="1" stop-color="#FFB829"/>
</linearGradient>
<clipPath id="clip0_248_11278">
<rect width="67.17" height="53.59" fill="white"/>
</clipPath>
</defs>
</svg>
