<svg width="26" height="25" viewBox="0 0 26 25" fill="none" xmlns="http://www.w3.org/2000/svg">
<path d="M13.2028 0.695557C10.2158 0.695679 7.32621 1.74664 5.05119 3.66041C2.77616 5.57417 1.26414 8.22584 0.785648 11.141C0.30716 14.0561 0.893436 17.0444 2.43957 19.5713C3.98571 22.0981 6.39082 23.9986 9.22454 24.9326C9.85353 25.0415 10.0894 24.6684 10.0894 24.3418C10.0894 24.0465 10.0737 23.067 10.0737 22.0254C6.91301 22.6006 6.09534 21.2637 5.84375 20.5641C5.56457 19.8837 5.12202 19.2807 4.55433 18.8073C4.11405 18.5741 3.48507 17.9989 4.5386 17.9833C4.94088 18.0265 5.32671 18.1649 5.66339 18.3868C6.00008 18.6087 6.2777 18.9076 6.47273 19.2581C6.64478 19.5637 6.87613 19.8327 7.15352 20.0498C7.43092 20.2668 7.7489 20.4276 8.08925 20.5229C8.4296 20.6182 8.78563 20.6462 9.13694 20.6052C9.48825 20.5643 9.82793 20.4552 10.1365 20.2842C10.191 19.6519 10.476 19.0607 10.9385 18.6208C8.13953 18.3098 5.21477 17.2371 5.21477 12.4799C5.19709 11.2438 5.65843 10.0479 6.50418 9.13737C6.11959 8.06307 6.16459 6.8841 6.62997 5.8415C6.62997 5.8415 7.68348 5.51501 10.0894 7.11632C12.1478 6.55661 14.3208 6.55661 16.3792 7.11632C18.785 5.49948 19.8386 5.8415 19.8386 5.8415C20.304 6.88408 20.349 8.06308 19.9644 9.13737C20.8127 10.0463 21.2744 11.2433 21.2538 12.4799C21.2538 17.2526 18.3133 18.3098 15.5143 18.6208C15.8145 18.9216 16.0458 19.2828 16.1923 19.6798C16.3388 20.0768 16.3972 20.5004 16.3635 20.9217C16.3635 22.5852 16.3477 23.9221 16.3477 24.3419C16.3477 24.6684 16.5836 25.057 17.2126 24.9327C20.0413 23.991 22.4395 22.0861 23.979 19.5579C25.5186 17.0298 26.0993 14.043 25.6175 11.1307C25.1357 8.2184 23.6227 5.57017 21.3487 3.65874C19.0747 1.74731 16.1876 0.697093 13.2028 0.695557Z" fill="#3C63FF"/>
</svg>
