<svg width="1280" height="382" viewBox="0 0 1280 382" fill="none" xmlns="http://www.w3.org/2000/svg">
<path d="M319 175C319 161.193 330.193 150 344 150H921C934.807 150 946 161.193 946 175V270C946 283.807 934.807 295 921 295H344C330.193 295 319 283.807 319 270V175Z" fill="#3C63FF"/>
<path d="M929.62 172.874C929.854 177.898 925.683 182.177 920.277 182.412C914.872 182.667 910.317 178.793 910.083 173.768C909.849 168.744 914.042 164.487 919.426 164.231C924.81 163.976 929.364 167.85 929.62 172.874Z" fill="white"/>
<path d="M924.831 173.087C924.959 175.642 922.81 177.835 920.064 177.962C917.319 178.09 914.978 176.11 914.871 173.556C914.765 171.001 916.893 168.808 919.639 168.68C922.384 168.553 924.725 170.533 924.831 173.087Z" fill="#01152D"/>
<path d="M919.388 173.198C1040.36 120.532 1159.85 66.1325 1277.86 10" stroke="#A0A0A0" stroke-width="2" stroke-linecap="round" stroke-linejoin="round"/>
<path d="M931.027 274.605C931.256 279.819 926.784 284.249 921.041 284.499C915.298 284.75 910.449 280.717 910.242 275.502C910.012 270.288 914.484 265.88 920.227 265.63C925.97 265.379 930.797 269.39 931.027 274.605Z" fill="white"/>
<path d="M925.947 274.835C926.073 277.487 923.792 279.757 920.854 279.882C917.916 280.007 915.448 277.946 915.344 275.295C915.24 272.643 917.521 270.373 920.437 270.248C923.375 270.123 925.844 272.162 925.947 274.835Z" fill="#01152D"/>
<path d="M920.366 274.626C1038.81 308.037 1158.47 339.523 1279.24 369.001" stroke="#A0A0A0" stroke-width="2" stroke-linecap="round" stroke-linejoin="round"/>
<path d="M360.275 273.688C360.041 279.207 354.921 283.464 348.819 283.183C342.74 282.902 338.017 278.225 338.274 272.706C338.532 267.186 343.652 262.953 349.707 263.21C355.763 263.491 360.509 268.168 360.252 273.688H360.275Z" fill="white"/>
<path d="M354.898 273.454C354.781 276.26 352.162 278.435 349.053 278.295C345.943 278.155 343.535 275.769 343.652 272.939C343.769 270.133 346.387 267.958 349.497 268.098C352.607 268.239 355.015 270.624 354.898 273.454Z" fill="#01162E"/>
<path d="M348.962 273.713C234.076 311.975 118.083 347.748 0.983154 381" stroke="#A0A0A0" stroke-width="2" stroke-linecap="round" stroke-linejoin="round"/>
<path d="M357.764 175.345C357.567 180.014 353.334 183.615 348.31 183.397C343.286 183.18 339.39 179.203 339.607 174.534C339.825 169.864 344.057 166.283 349.061 166.501C354.066 166.718 357.962 170.675 357.764 175.345Z" fill="white"/>
<path d="M353.333 175.147C353.235 177.521 351.059 179.361 348.507 179.262C345.936 179.143 343.958 177.125 344.057 174.731C344.156 172.357 346.332 170.517 348.883 170.616C351.435 170.735 353.432 172.753 353.333 175.127V175.147Z" fill="#01152D"/>
<path d="M351.037 175.046C232.78 118.718 116.076 60.6489 0.956055 1" stroke="#A0A0A0" stroke-width="2" stroke-linecap="round" stroke-linejoin="round"/>
<path d="M395.398 254.412V193.322H402.795V247.85H431.193V254.412H395.398ZM460.903 255.367C456.489 255.367 452.68 254.393 449.479 252.444C446.297 250.475 443.841 247.731 442.111 244.211C440.401 240.671 439.545 236.555 439.545 231.861C439.545 227.168 440.401 223.032 442.111 219.452C443.841 215.853 446.247 213.049 449.33 211.04C452.432 209.012 456.051 207.998 460.188 207.998C462.574 207.998 464.93 208.395 467.257 209.191C469.584 209.986 471.702 211.279 473.611 213.069C475.52 214.839 477.041 217.185 478.175 220.108C479.308 223.032 479.875 226.631 479.875 230.907V233.89H444.557V227.805H472.716C472.716 225.219 472.199 222.912 471.165 220.884C470.151 218.856 468.699 217.255 466.81 216.082C464.94 214.908 462.733 214.322 460.188 214.322C457.384 214.322 454.957 215.018 452.909 216.41C450.881 217.782 449.32 219.572 448.226 221.779C447.132 223.986 446.585 226.353 446.585 228.878V232.935C446.585 236.395 447.182 239.329 448.375 241.735C449.588 244.121 451.268 245.941 453.416 247.194C455.564 248.427 458.06 249.043 460.903 249.043C462.753 249.043 464.423 248.785 465.915 248.268C467.426 247.731 468.729 246.935 469.822 245.881C470.916 244.807 471.761 243.475 472.358 241.884L479.159 243.793C478.443 246.1 477.24 248.128 475.55 249.878C473.859 251.608 471.771 252.961 469.286 253.935C466.8 254.89 464.006 255.367 460.903 255.367ZM504.067 255.486C501.163 255.486 498.528 254.939 496.162 253.846C493.795 252.732 491.916 251.131 490.524 249.043C489.132 246.935 488.436 244.39 488.436 241.407C488.436 238.782 488.953 236.654 489.987 235.023C491.021 233.373 492.403 232.08 494.134 231.145C495.864 230.211 497.773 229.515 499.861 229.057C501.969 228.58 504.087 228.202 506.214 227.924C508.999 227.566 511.256 227.297 512.986 227.118C514.736 226.92 516.009 226.591 516.804 226.134C517.619 225.677 518.027 224.881 518.027 223.748V223.509C518.027 220.566 517.222 218.279 515.611 216.648C514.02 215.018 511.604 214.202 508.362 214.202C505.001 214.202 502.366 214.938 500.457 216.41C498.548 217.881 497.206 219.452 496.43 221.123L489.749 218.736C490.942 215.952 492.533 213.785 494.521 212.233C496.53 210.662 498.717 209.569 501.084 208.952C503.47 208.316 505.817 207.998 508.124 207.998C509.595 207.998 511.286 208.177 513.195 208.535C515.124 208.873 516.983 209.579 518.773 210.653C520.582 211.726 522.084 213.347 523.277 215.515C524.47 217.682 525.067 220.586 525.067 224.225V254.412H518.027V248.208H517.669C517.192 249.202 516.396 250.266 515.283 251.4C514.169 252.533 512.688 253.498 510.838 254.293C508.989 255.089 506.732 255.486 504.067 255.486ZM505.141 249.162C507.925 249.162 510.271 248.616 512.18 247.522C514.109 246.428 515.561 245.016 516.536 243.286C517.53 241.556 518.027 239.736 518.027 237.827V231.384C517.729 231.742 517.072 232.07 516.058 232.368C515.064 232.647 513.911 232.895 512.598 233.114C511.305 233.313 510.043 233.492 508.81 233.651C507.597 233.79 506.612 233.91 505.857 234.009C504.027 234.248 502.317 234.635 500.726 235.172C499.155 235.689 497.882 236.475 496.908 237.529C495.953 238.563 495.476 239.975 495.476 241.765C495.476 244.211 496.381 246.06 498.19 247.313C500.02 248.546 502.337 249.162 505.141 249.162ZM555.217 255.367C551.399 255.367 548.028 254.403 545.105 252.474C542.181 250.525 539.895 247.78 538.244 244.241C536.593 240.681 535.768 236.475 535.768 231.623C535.768 226.81 536.593 222.634 538.244 219.094C539.895 215.555 542.191 212.82 545.135 210.891C548.078 208.962 551.478 207.998 555.336 207.998C558.319 207.998 560.676 208.495 562.406 209.489C564.156 210.464 565.488 211.577 566.403 212.83C567.338 214.063 568.064 215.077 568.581 215.873H569.177V193.322H576.217V254.412H569.416V247.373H568.581C568.064 248.208 567.328 249.262 566.373 250.535C565.419 251.787 564.056 252.911 562.287 253.905C560.517 254.88 558.16 255.367 555.217 255.367ZM556.172 249.043C558.995 249.043 561.382 248.307 563.331 246.836C565.279 245.344 566.761 243.286 567.775 240.661C568.789 238.016 569.297 234.964 569.297 231.503C569.297 228.083 568.799 225.09 567.805 222.525C566.811 219.939 565.339 217.931 563.39 216.499C561.441 215.047 559.035 214.322 556.172 214.322C553.189 214.322 550.703 215.087 548.714 216.618C546.745 218.13 545.264 220.188 544.27 222.793C543.295 225.378 542.808 228.282 542.808 231.503C542.808 234.765 543.305 237.728 544.299 240.393C545.314 243.037 546.805 245.145 548.774 246.716C550.762 248.268 553.228 249.043 556.172 249.043ZM609.298 255.367C604.883 255.367 601.075 254.393 597.873 252.444C594.691 250.475 592.235 247.731 590.505 244.211C588.795 240.671 587.94 236.555 587.94 231.861C587.94 227.168 588.795 223.032 590.505 219.452C592.235 215.853 594.642 213.049 597.724 211.04C600.826 209.012 604.446 207.998 608.582 207.998C610.968 207.998 613.325 208.395 615.652 209.191C617.978 209.986 620.096 211.279 622.005 213.069C623.914 214.839 625.436 217.185 626.569 220.108C627.703 223.032 628.27 226.631 628.27 230.907V233.89H592.951V227.805H621.11C621.11 225.219 620.593 222.912 619.559 220.884C618.545 218.856 617.093 217.255 615.204 216.082C613.335 214.908 611.127 214.322 608.582 214.322C605.778 214.322 603.352 215.018 601.304 216.41C599.275 217.782 597.714 219.572 596.62 221.779C595.527 223.986 594.98 226.353 594.98 228.878V232.935C594.98 236.395 595.576 239.329 596.77 241.735C597.983 244.121 599.663 245.941 601.811 247.194C603.958 248.427 606.454 249.043 609.298 249.043C611.147 249.043 612.818 248.785 614.309 248.268C615.821 247.731 617.123 246.935 618.217 245.881C619.311 244.807 620.156 243.475 620.752 241.884L627.554 243.793C626.838 246.1 625.635 248.128 623.944 249.878C622.254 251.608 620.166 252.961 617.68 253.935C615.194 254.89 612.4 255.367 609.298 255.367ZM638.978 254.412V208.594H645.779V215.515H646.257C647.092 213.248 648.603 211.408 650.791 209.996C652.978 208.584 655.444 207.878 658.189 207.878C658.706 207.878 659.352 207.888 660.127 207.908C660.903 207.928 661.49 207.958 661.887 207.998V215.157C661.649 215.097 661.102 215.008 660.247 214.888C659.412 214.749 658.527 214.68 657.592 214.68C655.365 214.68 653.376 215.147 651.626 216.082C649.896 216.996 648.524 218.269 647.51 219.9C646.515 221.51 646.018 223.35 646.018 225.418V254.412H638.978ZM671.187 254.412V193.322H678.227V215.873H678.823C679.34 215.077 680.056 214.063 680.971 212.83C681.906 211.577 683.238 210.464 684.968 209.489C686.718 208.495 689.085 207.998 692.067 207.998C695.925 207.998 699.326 208.962 702.269 210.891C705.212 212.82 707.509 215.555 709.16 219.094C710.81 222.634 711.636 226.81 711.636 231.623C711.636 236.475 710.81 240.681 709.16 244.241C707.509 247.78 705.222 250.525 702.299 252.474C699.376 254.403 696.005 255.367 692.187 255.367C689.244 255.367 686.887 254.88 685.117 253.905C683.347 252.911 681.985 251.787 681.031 250.535C680.076 249.262 679.34 248.208 678.823 247.373H677.988V254.412H671.187ZM678.107 231.503C678.107 234.964 678.614 238.016 679.629 240.661C680.643 243.286 682.124 245.344 684.073 246.836C686.022 248.307 688.408 249.043 691.232 249.043C694.175 249.043 696.631 248.268 698.6 246.716C700.589 245.145 702.08 243.037 703.075 240.393C704.089 237.728 704.596 234.765 704.596 231.503C704.596 228.282 704.099 225.378 703.104 222.793C702.13 220.188 700.648 218.13 698.66 216.618C696.691 215.087 694.215 214.322 691.232 214.322C688.369 214.322 685.962 215.047 684.013 216.499C682.065 217.931 680.593 219.939 679.599 222.525C678.604 225.09 678.107 228.083 678.107 231.503ZM741.018 255.367C736.881 255.367 733.252 254.383 730.13 252.414C727.028 250.445 724.602 247.691 722.852 244.151C721.121 240.611 720.256 236.475 720.256 231.742C720.256 226.969 721.121 222.803 722.852 219.243C724.602 215.684 727.028 212.92 730.13 210.951C733.252 208.982 736.881 207.998 741.018 207.998C745.154 207.998 748.773 208.982 751.876 210.951C754.998 212.92 757.424 215.684 759.154 219.243C760.904 222.803 761.779 226.969 761.779 231.742C761.779 236.475 760.904 240.611 759.154 244.151C757.424 247.691 754.998 250.445 751.876 252.414C748.773 254.383 745.154 255.367 741.018 255.367ZM741.018 249.043C744.16 249.043 746.745 248.238 748.773 246.627C750.802 245.016 752.303 242.898 753.278 240.273C754.252 237.648 754.739 234.805 754.739 231.742C754.739 228.68 754.252 225.826 753.278 223.181C752.303 220.536 750.802 218.398 748.773 216.768C746.745 215.137 744.16 214.322 741.018 214.322C737.876 214.322 735.29 215.137 733.262 216.768C731.234 218.398 729.732 220.536 728.758 223.181C727.783 225.826 727.296 228.68 727.296 231.742C727.296 234.805 727.783 237.648 728.758 240.273C729.732 242.898 731.234 245.016 733.262 246.627C735.29 248.238 737.876 249.043 741.018 249.043ZM786.008 255.486C783.105 255.486 780.47 254.939 778.103 253.846C775.737 252.732 773.858 251.131 772.466 249.043C771.074 246.935 770.377 244.39 770.377 241.407C770.377 238.782 770.895 236.654 771.929 235.023C772.963 233.373 774.345 232.08 776.075 231.145C777.805 230.211 779.714 229.515 781.802 229.057C783.91 228.58 786.028 228.202 788.156 227.924C790.94 227.566 793.197 227.297 794.927 227.118C796.677 226.92 797.95 226.591 798.745 226.134C799.561 225.677 799.968 224.881 799.968 223.748V223.509C799.968 220.566 799.163 218.279 797.552 216.648C795.961 215.018 793.545 214.202 790.304 214.202C786.943 214.202 784.308 214.938 782.399 216.41C780.49 217.881 779.147 219.452 778.372 221.123L771.69 218.736C772.883 215.952 774.474 213.785 776.463 212.233C778.471 210.662 780.659 209.569 783.025 208.952C785.412 208.316 787.758 207.998 790.065 207.998C791.537 207.998 793.227 208.177 795.136 208.535C797.065 208.873 798.924 209.579 800.714 210.653C802.524 211.726 804.025 213.347 805.218 215.515C806.412 217.682 807.008 220.586 807.008 224.225V254.412H799.968V248.208H799.61C799.133 249.202 798.338 250.266 797.224 251.4C796.11 252.533 794.629 253.498 792.779 254.293C790.93 255.089 788.673 255.486 786.008 255.486ZM787.082 249.162C789.866 249.162 792.213 248.616 794.122 247.522C796.051 246.428 797.502 245.016 798.477 243.286C799.471 241.556 799.968 239.736 799.968 237.827V231.384C799.67 231.742 799.014 232.07 798 232.368C797.005 232.647 795.852 232.895 794.539 233.114C793.247 233.313 791.984 233.492 790.751 233.651C789.538 233.79 788.554 233.91 787.798 234.009C785.968 234.248 784.258 234.635 782.667 235.172C781.096 235.689 779.824 236.475 778.849 237.529C777.895 238.563 777.417 239.975 777.417 241.765C777.417 244.211 778.322 246.06 780.132 247.313C781.961 248.546 784.278 249.162 787.082 249.162ZM819.857 254.412V208.594H826.658V215.515H827.136C827.971 213.248 829.482 211.408 831.67 209.996C833.857 208.584 836.323 207.878 839.067 207.878C839.585 207.878 840.231 207.888 841.006 207.908C841.782 207.928 842.369 207.958 842.766 207.998V215.157C842.528 215.097 841.981 215.008 841.126 214.888C840.29 214.749 839.406 214.68 838.471 214.68C836.244 214.68 834.255 215.147 832.505 216.082C830.775 216.996 829.403 218.269 828.388 219.9C827.394 221.51 826.897 223.35 826.897 225.418V254.412H819.857ZM867.018 255.367C863.2 255.367 859.829 254.403 856.906 252.474C853.982 250.525 851.695 247.78 850.045 244.241C848.394 240.681 847.569 236.475 847.569 231.623C847.569 226.81 848.394 222.634 850.045 219.094C851.695 215.555 853.992 212.82 856.935 210.891C859.879 208.962 863.279 207.998 867.137 207.998C870.12 207.998 872.477 208.495 874.207 209.489C875.957 210.464 877.289 211.577 878.204 212.83C879.138 214.063 879.864 215.077 880.381 215.873H880.978V193.322H888.018V254.412H881.217V247.373H880.381C879.864 248.208 879.129 249.262 878.174 250.535C877.219 251.787 875.857 252.911 874.087 253.905C872.317 254.88 869.961 255.367 867.018 255.367ZM867.972 249.043C870.796 249.043 873.183 248.307 875.131 246.836C877.08 245.344 878.562 243.286 879.576 240.661C880.59 238.016 881.097 234.964 881.097 231.503C881.097 228.083 880.6 225.09 879.606 222.525C878.612 219.939 877.14 217.931 875.191 216.499C873.242 215.047 870.836 214.322 867.972 214.322C864.989 214.322 862.504 215.087 860.515 216.618C858.546 218.13 857.065 220.188 856.07 222.793C855.096 225.378 854.609 228.282 854.609 231.503C854.609 234.765 855.106 237.728 856.1 240.393C857.114 243.037 858.606 245.145 860.575 246.716C862.563 248.268 865.029 249.043 867.972 249.043Z" fill="url(#paint0_linear_387_304)"/>
<defs>
<linearGradient id="paint0_linear_387_304" x1="642" y1="172.412" x2="642" y2="274.412" gradientUnits="userSpaceOnUse">
<stop stop-color="#FFBB43"/>
<stop offset="1" stop-color="#FF8F27"/>
</linearGradient>
</defs>
</svg>
