<svg width="25" height="25" viewBox="0 0 25 25" fill="none" xmlns="http://www.w3.org/2000/svg">
<path d="M22.4669 0.695726H1.79394C1.56155 0.692518 1.33081 0.734843 1.11488 0.820284C0.898958 0.905725 0.70208 1.03261 0.535493 1.19369C0.368906 1.35477 0.235874 1.54689 0.143993 1.75908C0.0521125 1.97127 0.00318319 2.19937 0 2.43035V23.2216C0.00318319 23.4526 0.0521125 23.6807 0.143993 23.8929C0.235874 24.1051 0.368906 24.2972 0.535493 24.4583C0.70208 24.6194 0.898958 24.7463 1.11488 24.8317C1.33081 24.9171 1.56155 24.9595 1.79394 24.9563H22.4669C22.6993 24.9595 22.9301 24.9171 23.146 24.8317C23.3619 24.7463 23.5588 24.6194 23.7254 24.4583C23.892 24.2972 24.025 24.1051 24.1169 23.8929C24.2088 23.6807 24.2577 23.4526 24.2609 23.2216V2.43035C24.2577 2.19937 24.2088 1.97127 24.1169 1.75908C24.025 1.54689 23.892 1.35477 23.7254 1.19369C23.5588 1.03261 23.3619 0.905725 23.146 0.820284C22.9301 0.734843 22.6993 0.692518 22.4669 0.695726ZM7.35881 21.0018H3.69771V10.0846H7.35881V21.0018ZM5.52826 8.55614C5.02335 8.55614 4.53911 8.35677 4.18209 8.00189C3.82506 7.64701 3.62449 7.16569 3.62449 6.66382C3.62449 6.16194 3.82506 5.68062 4.18209 5.32574C4.53911 4.97086 5.02335 4.7715 5.52826 4.7715C5.79637 4.74127 6.06787 4.76768 6.325 4.84899C6.58213 4.9303 6.81908 5.06467 7.02034 5.24332C7.2216 5.42196 7.38263 5.64085 7.49289 5.88564C7.60314 6.13043 7.66013 6.39561 7.66013 6.66382C7.66013 6.93202 7.60314 7.1972 7.49289 7.44199C7.38263 7.68679 7.2216 7.90567 7.02034 8.08432C6.81908 8.26296 6.58213 8.39734 6.325 8.47865C6.06787 8.55995 5.79637 8.58636 5.52826 8.55614ZM20.5632 21.0018H16.9021V15.1429C16.9021 13.6751 16.3773 12.7168 15.0471 12.7168C14.6354 12.7198 14.2346 12.8482 13.8985 13.0846C13.5625 13.321 13.3075 13.6541 13.1677 14.039C13.0722 14.3241 13.0309 14.6244 13.0457 14.9245V20.9897H9.38461C9.38461 20.9897 9.38461 11.0671 9.38461 10.0724H13.0457V11.613C13.3783 11.0393 13.862 10.5668 14.4448 10.2461C15.0276 9.92551 15.6873 9.76898 16.3529 9.79343C18.7936 9.79343 20.5632 11.3582 20.5632 14.7183V21.0018Z" fill="#3C63FF"/>
</svg>
