<svg width="30" height="27" viewBox="0 0 30 27" fill="none" xmlns="http://www.w3.org/2000/svg">
<path d="M22.5869 5.99034H24.0695V7.48792C24.0695 7.88511 24.2257 8.26602 24.5038 8.54688C24.7818 8.82773 25.1589 8.98551 25.5521 8.98551C25.9453 8.98551 26.3224 8.82773 26.6005 8.54688C26.8785 8.26602 27.0347 7.88511 27.0347 7.48792V5.99034H28.5173C28.9106 5.99034 29.2877 5.83256 29.5657 5.55171C29.8438 5.27085 30 4.88994 30 4.49275C30 4.09557 29.8438 3.71465 29.5657 3.4338C29.2877 3.15295 28.9106 2.99517 28.5173 2.99517H27.0347V1.49758C27.0347 1.1004 26.8785 0.719484 26.6005 0.438632C26.3224 0.157781 25.9453 0 25.5521 0C25.1589 0 24.7818 0.157781 24.5038 0.438632C24.2257 0.719484 24.0695 1.1004 24.0695 1.49758V2.99517H22.5869C22.1937 2.99517 21.8166 3.15295 21.5385 3.4338C21.2605 3.71465 21.1043 4.09557 21.1043 4.49275C21.1043 4.88994 21.2605 5.27085 21.5385 5.55171C21.8166 5.83256 22.1937 5.99034 22.5869 5.99034ZM28.5173 11.9807C28.1241 11.9807 27.747 12.1385 27.469 12.4193C27.1909 12.7002 27.0347 13.0811 27.0347 13.4783V22.4638C27.0347 22.861 26.8785 23.2419 26.6005 23.5227C26.3224 23.8036 25.9453 23.9614 25.5521 23.9614H4.7956C4.40239 23.9614 4.02529 23.8036 3.74724 23.5227C3.4692 23.2419 3.313 22.861 3.313 22.4638V8.10193L12.0307 16.9227C12.8647 17.7641 13.9952 18.2366 15.1739 18.2366C16.3525 18.2366 17.483 17.7641 18.317 16.9227L21.979 13.2237C22.2582 12.9417 22.4151 12.5592 22.4151 12.1604C22.4151 11.7616 22.2582 11.3791 21.979 11.0971C21.6999 10.8151 21.3212 10.6567 20.9264 10.6567C20.5316 10.6567 20.1529 10.8151 19.8737 11.0971L16.2117 14.7961C15.9345 15.0705 15.5619 15.2242 15.1739 15.2242C14.7858 15.2242 14.4132 15.0705 14.136 14.7961L5.40347 5.99034H16.6565C17.0497 5.99034 17.4268 5.83256 17.7048 5.55171C17.9829 5.27085 18.1391 4.88994 18.1391 4.49275C18.1391 4.09557 17.9829 3.71465 17.7048 3.4338C17.4268 3.15295 17.0497 2.99517 16.6565 2.99517H4.7956C3.61597 2.99517 2.48465 3.46851 1.65052 4.31107C0.816387 5.15362 0.347778 6.29637 0.347778 7.48792V22.4638C0.347778 23.6553 0.816387 24.7981 1.65052 25.6406C2.48465 26.4832 3.61597 26.9565 4.7956 26.9565H25.5521C26.7318 26.9565 27.8631 26.4832 28.6972 25.6406C29.5313 24.7981 30 23.6553 30 22.4638V13.4783C30 13.0811 29.8438 12.7002 29.5657 12.4193C29.2877 12.1385 28.9106 11.9807 28.5173 11.9807Z" fill="#3C63FF"/>
</svg>
